<svg width="152" height="24" viewBox="0 0 152 24" fill="none" xmlns="http://www.w3.org/2000/svg">
<path d="M2.98777 17.8151C2.94787 17.9229 2.86806 18.0221 2.75721 18.1126C2.64636 18.2031 2.50891 18.2463 2.34929 18.2463H0.899414L5.95847 5.89453H7.86061L12.9197 18.2463H11.4698C11.3057 18.2463 11.1683 18.2075 11.0619 18.1255C10.9555 18.0436 10.8801 17.9402 10.8313 17.8151L7.3108 8.85205C7.17335 8.52439 7.04034 8.11051 6.90289 7.61472C6.83638 7.86046 6.76987 8.08896 6.70336 8.30452C6.63686 8.51577 6.57035 8.70547 6.50384 8.87361L2.98777 17.8151Z" fill="#F2F4F8"/>
<path d="M25.7954 5.89062V18.2424H24.8422C24.6958 18.2424 24.5717 18.2165 24.4741 18.1647C24.3766 18.113 24.279 18.0311 24.1771 17.9147L17.0031 8.89125C17.0164 9.04646 17.0252 9.19735 17.0341 9.34825C17.043 9.49914 17.0474 9.6371 17.0474 9.77075V18.2467H15.3936V5.89494H16.3646C16.5286 5.89494 16.6528 5.91218 16.737 5.95098C16.8213 5.98978 16.9099 6.0717 17.0119 6.20535L24.2037 15.2374C24.1859 15.0736 24.1726 14.9098 24.1638 14.7502C24.1549 14.5907 24.1505 14.4441 24.1505 14.3062V5.89062H25.7954Z" fill="#F2F4F8"/>
<path d="M38.3745 6.5718C38.3745 6.77874 38.308 6.97706 38.1794 7.16675L31.165 16.7593H38.2503V18.2467H28.6953V17.5224C28.6953 17.4232 28.713 17.3327 28.7441 17.2465C28.7751 17.1602 28.8195 17.0783 28.8727 16.9964L35.9048 7.37801H29.05V5.89062H38.3745V6.5718Z" fill="#F2F4F8"/>
<path d="M49.2555 16.7589L49.2466 18.2463H41.3721V5.89453H49.2466V7.38191H43.2653V11.2965H48.0805V12.7322H43.2653V16.7589H49.2555Z" fill="#F2F4F8"/>
<path d="M62.8706 5.89062V18.2424H61.9173C61.771 18.2424 61.6469 18.2165 61.5493 18.1647C61.4518 18.113 61.3542 18.0311 61.2523 17.9147L54.0782 8.89125C54.0916 9.04646 54.1004 9.19735 54.1093 9.34825C54.1182 9.49914 54.1226 9.6371 54.1226 9.77075V18.2467H52.4688V5.89494H53.4398C53.6038 5.89494 53.728 5.91218 53.8122 5.95098C53.8965 5.98978 53.9851 6.0717 54.0871 6.20535L61.2789 15.2374C61.2611 15.0736 61.2478 14.9098 61.239 14.7502C61.2301 14.5907 61.2257 14.4441 61.2257 14.3062V5.89062H62.8706Z" fill="#F2F4F8"/>
<path d="M67.5371 2.82617H74.8974C76.6576 2.82617 78.2095 3.15383 79.5618 3.80483C80.9141 4.45583 81.9605 5.37843 82.7098 6.56403C83.4592 7.74962 83.8316 9.12922 83.8316 10.7071C83.8316 12.2851 83.4592 13.6647 82.7098 14.8502C81.9605 16.0358 80.9141 16.9541 79.5618 17.6094C78.2095 18.2604 76.6576 18.5881 74.8974 18.5881H67.5371V2.82617ZM74.7156 15.5918C76.3339 15.5918 77.6286 15.152 78.5908 14.2769C79.5529 13.3974 80.0362 12.2118 80.0362 10.7071C80.0362 9.20682 79.5529 8.01692 78.5908 7.13742C77.6242 6.26224 76.3339 5.82249 74.7156 5.82249H71.2882V15.5918H74.7156Z" fill="#F2F4F8"/>
<path d="M86.59 4.22231C86.1732 3.84724 85.9648 3.38162 85.9648 2.82547C85.9648 2.26932 86.1732 1.8037 86.59 1.42862C87.0068 1.05355 87.5477 0.868164 88.2084 0.868164C88.8735 0.868164 89.41 1.04924 89.8268 1.40707C90.2435 1.7649 90.4519 2.21758 90.4519 2.75649C90.4519 3.34282 90.2435 3.82568 89.8268 4.20938C89.41 4.59308 88.869 4.78277 88.2084 4.78277C87.5477 4.78709 87.0068 4.59739 86.59 4.22231ZM86.4038 6.47279H90.013V18.5831H86.4038V6.47279Z" fill="#F2F4F8"/>
<path d="M106.218 6.47249V16.5565C106.218 18.7768 105.624 20.428 104.436 21.5101C103.248 22.5922 101.51 23.1312 99.2262 23.1312C98.0246 23.1312 96.8807 22.9889 95.7988 22.7043C94.717 22.4198 93.8213 22.0059 93.1119 21.467L94.5485 18.9449C95.0717 19.3674 95.7368 19.6994 96.5393 19.9451C97.3418 20.1952 98.1443 20.3159 98.9469 20.3159C100.197 20.3159 101.119 20.04 101.714 19.4925C102.308 18.9449 102.605 18.1172 102.605 17.0049V16.4875C101.665 17.492 100.352 17.9965 98.6676 17.9965C97.5236 17.9965 96.4816 17.7507 95.5328 17.2635C94.5839 16.7764 93.8302 16.0909 93.276 15.2028C92.7217 14.319 92.4424 13.2972 92.4424 12.1418C92.4424 10.9864 92.7217 9.9646 93.276 9.0808C93.8302 8.19699 94.5839 7.50719 95.5328 7.02002C96.4816 6.53285 97.528 6.28711 98.6676 6.28711C100.472 6.28711 101.847 6.86482 102.787 8.02023V6.46818H106.218V6.47249ZM101.74 14.2974C102.348 13.7499 102.654 13.0342 102.654 12.1461C102.654 11.2623 102.348 10.5466 101.74 9.99478C101.128 9.44725 100.348 9.17133 99.3903 9.17133C98.4326 9.17133 97.6478 9.44725 97.027 9.99478C96.4107 10.5423 96.1003 11.258 96.1003 12.1461C96.1003 13.0342 96.4107 13.7499 97.027 14.2974C97.6433 14.8449 98.4326 15.1209 99.3903 15.1209C100.348 15.1165 101.128 14.8449 101.74 14.2974Z" fill="#F2F4F8"/>
<path d="M109.761 4.22231C109.344 3.84724 109.136 3.38162 109.136 2.82547C109.136 2.26932 109.344 1.8037 109.761 1.42862C110.178 1.05355 110.719 0.868164 111.379 0.868164C112.044 0.868164 112.581 1.04924 112.998 1.40707C113.414 1.7649 113.623 2.21758 113.623 2.75649C113.623 3.34282 113.414 3.82568 112.998 4.20938C112.581 4.59308 112.04 4.78277 111.379 4.78277C110.719 4.78709 110.178 4.59739 109.761 4.22231ZM109.575 6.47279H113.184V18.5831H109.575V6.47279Z" fill="#F2F4F8"/>
<path d="M124.575 17.9976C124.22 18.2519 123.786 18.4459 123.267 18.571C122.748 18.696 122.207 18.7606 121.635 18.7606C120.155 18.7606 119.006 18.3942 118.199 17.657C117.388 16.9197 116.984 15.8419 116.984 14.4149V9.43973H115.064V6.74088H116.984V3.79199H120.593V6.74088H123.697V9.43973H120.593V14.3675C120.593 14.8762 120.727 15.2728 120.997 15.5488C121.267 15.8247 121.649 15.967 122.141 15.967C122.713 15.967 123.196 15.8161 123.6 15.5186L124.575 17.9976Z" fill="#F2F4F8"/>
<path d="M136.081 7.63222C137.114 8.52464 137.633 9.87407 137.633 11.6719V18.5828H134.254V17.0738C133.576 18.1991 132.308 18.7595 130.459 18.7595C129.501 18.7595 128.672 18.6043 127.971 18.2853C127.271 17.9663 126.734 17.5352 126.362 16.979C125.989 16.4229 125.808 15.7934 125.808 15.0907C125.808 13.9654 126.242 13.0816 127.116 12.4349C127.989 11.7883 129.333 11.4692 131.155 11.4692H134.024C134.024 10.7061 133.784 10.1155 133.305 9.70162C132.826 9.28774 132.108 9.0808 131.155 9.0808C130.49 9.0808 129.838 9.17996 129.2 9.38259C128.557 9.58521 128.016 9.86113 127.568 10.206L126.273 7.75293C126.952 7.28732 127.767 6.92517 128.716 6.67081C129.665 6.41645 130.641 6.28711 131.643 6.28711C133.562 6.29573 135.048 6.73979 136.081 7.63222ZM133.004 15.9831C133.483 15.7072 133.82 15.2976 134.024 14.7544V13.5171H131.545C130.064 13.5171 129.324 13.9913 129.324 14.9355C129.324 15.3838 129.505 15.7417 129.869 16.0047C130.233 16.2676 130.729 16.397 131.363 16.397C131.975 16.4013 132.525 16.2633 133.004 15.9831Z" fill="#F2F4F8"/>
<path d="M140.896 1.88184H144.505V18.5836H140.896V1.88184Z" fill="#F2F4F8"/>
<path d="M147.631 18.1349C147.201 17.7124 146.983 17.1907 146.983 16.5613C146.983 15.9146 147.201 15.393 147.631 14.9963C148.061 14.5997 148.593 14.4014 149.227 14.4014C149.861 14.4014 150.393 14.5997 150.823 14.9963C151.253 15.393 151.47 15.9146 151.47 16.5613C151.47 17.1907 151.253 17.7167 150.823 18.1349C150.393 18.5531 149.857 18.7643 149.227 18.7643C148.593 18.7643 148.061 18.5531 147.631 18.1349Z" fill="#F2F4F8"/>
</svg>
