<svg width="111" height="45" viewBox="0 0 111 45" fill="none" xmlns="http://www.w3.org/2000/svg">
<path d="M20.878 10.5972L8.35045 42.7541C8.1996 43.1404 7.91631 43.4973 7.50792 43.8137C7.09953 44.1301 6.59917 44.2883 6.01418 44.2883H0.69043L18.917 0.188477H26.4998L44.8036 44.2883H39.4799C38.8765 44.2883 38.3761 44.1448 37.9861 43.8578C37.5961 43.5709 37.3165 43.2029 37.1436 42.7541L24.6013 10.5972L22.7323 5.83249L20.878 10.5972Z" fill="#F2F4F8"/>
<path d="M48.416 0.192383H70.4137C75.1746 0.192383 77.2607 0.906163 80.9141 2.73476C84.5675 4.56337 87.3489 7.51415 89.3725 10.8292C91.3997 14.1479 92.5145 17.8272 92.5145 22.2386C92.5145 26.6501 91.282 30.425 89.2584 33.7437C87.2312 37.0588 84.6116 39.7189 80.9582 41.5475C77.3048 43.3724 75.1746 44.2885 70.4137 44.2885H48.416V0.192383ZM79.6558 31.3228C83.2025 28.0482 83.4821 22.3048 83.4821 22.3048C83.4821 22.3048 83.7066 16.8706 79.115 12.6504C79.115 12.6504 75.7559 9.28756 70.388 9.45681L57.4778 9.44209L57.5955 35.1087L70.5057 35.1235C77.1061 34.8917 79.6558 31.3228 79.6558 31.3228Z" fill="#F2F4F8"/>
<path d="M98.3465 42.1616C96.93 40.745 96.2236 38.9753 96.2236 36.8524C96.2236 34.6779 96.9337 32.9229 98.3465 31.5799C99.763 30.2407 101.507 29.5674 103.582 29.5674C105.653 29.5674 107.401 30.237 108.817 31.5799C110.234 32.9192 110.94 34.6779 110.94 36.8524C110.94 38.9753 110.23 40.745 108.817 42.1616C107.401 43.5744 105.657 44.2845 103.582 44.2845C101.507 44.2845 99.763 43.5781 98.3465 42.1616Z" fill="#F2F4F8"/>
</svg>
