<?xml version="1.0" encoding="UTF-8"?>
<svg width="513px" height="470px" viewBox="0 0 513 470" version="1.1" xmlns="http://www.w3.org/2000/svg" xmlns:xlink="http://www.w3.org/1999/xlink">
    <title>fondo-cubos-m</title>
    <g id="Symbols">
        <g id="fondo-cubos-m">
            <g>
                <path d="M401.685544,469.941385 C403.33234,466.912966 404.99851,463.884547 406.722802,460.934281 C407.841818,462.566111 408.876481,464.25516 409.822653,465.994671 L412.108793,469.902309 L413,469.902309 L410.61699,465.486679 C409.595747,463.4468 408.423526,461.487434 407.110283,459.625222 L406.625931,459 L406.199702,459.664298 C404.940387,461.618117 403.816692,463.415631 402.71237,465.330373 L400,470 L401.685544,469.941385 Z" id="Path" fill="#DDE1E6" fill-rule="nonzero"></path>
                <path d="M323,411.554405 L296.720435,457.86895 L296.487701,458.258967 L296.022233,458.258967 C287.178335,458.473477 278.315043,458.531979 269.471145,458.648985 L242.939451,459 L241,459 L241.911542,457.381429 C246.314096,449.581084 250.910596,442.112254 255.487701,434.487418 L262.256386,423.059913 L265.631031,417.346161 L267.357143,414.518536 C267.922015,413.400026 268.76355,412.446428 269.800851,411.749414 C270.915149,411.161902 272.174775,410.911305 273.427625,411.027882 L283.338221,411.027882 L296.565279,411.027882 L309.792337,411.164388 C314.175497,411.339896 318.61684,411.300894 323,411.554405 Z M323,411.554405 C314.194891,411.65191 305.370388,411.983424 296.565279,412.178433 L283.338221,412.431944 L276.724693,412.548949 L273.427625,412.548949 C272.4626,412.47432 271.495884,412.670073 270.634816,413.114474 C269.859391,413.69349 269.239522,414.457496 268.831126,415.337573 L267.182592,418.2237 L263.827342,423.956953 L257.155629,435.423459 C252.73368,443.087298 248.137181,450.712134 243.850993,458.395473 L242.920057,456.796403 L269.45175,456.659897 C278.315043,456.659897 287.15894,456.523391 296.002838,456.659897 L295.304636,457.069415 L323,411.554405 Z" id="Shape" fill="#DDE1E6" fill-rule="nonzero"></path>
                <path d="M327.960784,411 L353.843137,411.137087 L373.254902,411.137087 C374.352941,411.137087 375.392157,411.137087 376.529412,411.137087 C377.767197,411.126275 378.937433,411.699787 379.686275,412.684211 L393.215686,434.79437 L399.843137,445.898409 L403.156863,451.440636 L404.823529,454.221542 L405.647059,455.592411 L406.411765,457.139535 L407,458.373317 L405.647059,458.627907 C405.176471,458.627907 404.666667,458.902081 403.941176,459 L403.392157,459 L402.137255,459 L398.803922,459 L392.137255,458.882497 L378.784314,458.667075 L365.45098,458.373317 L358.784314,458.197062 L355.45098,458.197062 L353.745098,458.197062 C353.086246,458.16721 352.445573,457.971876 351.882353,457.629131 C350.947055,456.867819 350.207545,455.894204 349.72549,454.789474 L348.078431,451.891065 L344.784314,446.015912 L338.196078,434.44186 L331.509804,422.906977 L328.156863,417.031824 C326.965957,415.150953 325.910989,413.18758 325,411.156671 L325,411.156671 L327.960784,411 Z M327.960784,411 L325.019608,411.156671 L325.019608,411.156671 C325.946506,413.190815 327.021274,415.154448 328.235294,417.031824 L331.647059,422.750306 L338.490196,434.187271 L345.431373,445.565483 L348.901961,451.264382 L350.627451,454.104039 C351.235294,455.063647 351.705882,456.062424 352.588235,456.493268 C353.522467,456.859438 354.534964,456.980789 355.529412,456.845777 L378.882353,456.845777 L392.235294,456.845777 L398.901961,456.845777 L403.686275,456.845777 C404.078431,456.845777 404.627451,456.630355 405.235294,456.512852 L404.490196,458.001224 C404.27451,457.531212 404.078431,457.080783 403.843137,456.630355 L403.039216,455.220318 L401.411765,452.439412 L398.156863,446.838433 L391.666667,435.656059 L378.862745,413.271726 C377.823529,411.587515 375.352941,412.096695 373.254902,411.940024 L366.784314,411.76377 L353.843137,411.470012 L327.960784,411 Z" id="Shape" fill="#DDE1E6" fill-rule="nonzero"></path>
                <path d="M317.990964,423.010924 L321.182229,417.562066 L322.768072,414.847402 L324.079819,412.894406 C324.549699,413.597484 325.019578,414.300563 325.450301,415.042701 L327.036145,417.972195 L330.22741,423.831182 L336.590361,435.549156 L343.051205,447.26713 L346.281627,453.126117 L347.906627,456.036081 C348.454686,456.799994 348.810572,457.684163 348.944277,458.614035 C348.92708,459.004199 348.819883,459.385146 348.631024,459.727243 L347.847892,461.1334 L346.222892,464.023833 L342.972892,469.88282 L342.972892,470 L345.185241,470 L347.98494,465.117511 L349.649096,462.227077 C349.942771,461.719298 350.177711,461.328699 350.490964,460.70374 C350.815166,460.060875 350.989198,459.353112 351,458.633565 C350.863019,457.346715 350.397943,456.1163 349.649096,455.059583 L348.004518,452.169149 L344.695783,446.310162 L338.078313,434.728898 L331.480422,423.147633 L328.073795,417.288646 L326.39006,414.417742 C325.822289,413.460775 325.11747,412.562397 324.432229,411.624959 L324.021084,411 L323.60994,411.644489 L321.965361,414.359153 L320.438253,417.112877 L317.423193,422.639854 L311.314759,433.67428 L299,455.684542 L311.588855,433.83052 L317.990964,423.010924 Z" id="Path" fill="#DDE1E6" fill-rule="nonzero"></path>
                <path d="M305,469.980556 L304.117259,468.444444 L300.645143,462.416667 C299.991628,461.455212 299.476636,460.408082 299.115058,459.305556 C298.891753,458.159643 299.131256,456.972633 299.782018,456 C299.112481,456.972235 298.858575,458.16771 299.075825,459.325 C299.431793,460.428938 299.933065,461.48153 300.566677,462.455556 L303.979943,468.541667 L304.784219,470 L305,469.980556 Z" id="Path" fill="#DDE1E6" fill-rule="nonzero"></path>
                <path d="M299.012903,463.220955 L302.477419,469.39831 L302.806452,470 L303,470 L302.612903,469.318084 L299.090323,463.180842 C298.534353,462.131995 297.886462,461.138364 297.154839,460.212503 C296.31466,459.367291 295.168489,458.930096 294,459.009122 C295.157818,458.949354 296.287215,459.392772 297.116129,460.23256 C297.842305,461.161162 298.477682,462.162207 299.012903,463.220955 L299.012903,463.220955 Z" id="Path" fill="#DDE1E6" fill-rule="nonzero"></path>
                <path d="M249.937879,469.89882 L246.569697,464.232715 C245.545455,462.492411 244.6,460.752108 243.595455,458.971332 C244.383333,458.971332 245.171212,458.789207 245.959091,458.768971 L255.571212,458.768971 L268.393939,458.768971 L294,458.890388 L268.393939,458.46543 L255.590909,458.161889 L249.169697,458 L245.978788,458 C244.915152,458 243.812121,458.121417 242.728788,458.182125 L242,458.182125 L242.334848,458.890388 C243.280303,461.015177 244.422727,462.937605 245.525758,464.961214 L248.30303,470 L249.937879,469.89882 Z" id="Path" fill="#DDE1E6" fill-rule="nonzero"></path>
                <path d="M346.640315,469.920792 L349.178898,465.683168 L350.897323,462.792079 C351.60316,460.865494 353.570536,459.73025 355.564409,460.09901 L365.523465,460.09901 L378.821732,460.09901 L392.100472,460.09901 L402.079055,460.09901 L403.71937,460.09901 C403.503007,460.596574 403.255141,461.07943 402.977323,461.544554 L401.297953,464.455446 L398.075906,470 L400.477795,470 L403.094488,465.544554 C404.306736,463.637753 405.396046,461.65341 406.355591,459.60396 L407,458.118812 L405.418268,458.118812 L402.059528,458 L398.739843,458 L392.080945,458 L365.523465,458.29703 L358.884094,458.39604 L355.564409,458.39604 C352.978526,458.068328 350.502593,459.560091 349.549921,462.019802 L347.890079,464.930693 L345,469.920792 L346.640315,469.920792 Z" id="Path" fill="#DDE1E6" fill-rule="nonzero"></path>
                <path d="M449.545082,459.775769 L455.969262,459.934901 C458.091189,460.05425 460.407787,459.716094 461.595287,461.38698 C463.230533,464.191682 464.846311,467.095841 466.481557,470 L468,470 C466.170082,466.916817 464.30123,463.813743 462.354508,460.710669 C461.569722,459.77437 460.44441,459.206637 459.239754,459.139241 C458.091189,459.139241 457.059426,459.139241 455.969262,459.139241 L449.545082,459.139241 L436.696721,459.139241 L411,459 L436.696721,459.437613 L449.545082,459.775769 Z" id="Path" fill="#DDE1E6" fill-rule="nonzero"></path>
                <path d="M414,470 L411.171975,465.093525 C410.003355,463.184597 408.950373,461.202364 408.019108,459.158273 L411.057325,459 L408,459.118705 L408,459.118705 L408,459.118705 C408.913548,461.160855 409.94734,463.143002 411.095541,465.053957 L413.828025,469.901079 L414,470 Z" id="Path" fill="#DDE1E6" fill-rule="nonzero"></path>
                <polygon id="Path" fill="#DDE1E6" fill-rule="nonzero" points="509.135266 470 513 463.038889 513 463 509 470"></polygon>
                <path d="M469.811516,470 L466.659501,464.392104 L465.034549,461.520241 C464.522305,460.738983 464.206748,459.84727 464.114395,458.92004 C464.160442,458.004348 464.458333,457.118586 464.975816,456.358648 L466.620345,453.486785 L469.87025,447.66544 L476.370058,436.139177 C480.618426,428.726664 484.612284,421.120107 488.899808,413.765808 L489.467562,414.42556 C489.761228,414.794246 490.035317,415.356976 490.34856,415.842088 L492.090979,418.830378 L495.614971,424.806959 L502.643378,436.740716 L509.554319,448.868518 L513,454.845099 L513,454.689863 L509.691363,448.868518 L502.917466,436.779525 L496.261036,424.632319 L492.913244,418.558715 L491.249136,415.531616 C490.981096,414.990228 490.680358,414.465354 490.34856,413.959853 L489.252207,412.620943 L488.743186,412 L488.312476,412.659752 C485.865259,416.385413 483.750864,420.227501 481.460269,424.011375 L474.745106,435.28538 L468.108253,446.71462 L464.780038,452.438943 L463.135509,455.310806 C462.408818,456.392293 462.014366,457.659547 462,458.958849 C462.101168,460.232958 462.525425,461.461091 463.233397,462.529274 L464.877927,465.401138 L467.520921,469.980596 L469.811516,470 Z" id="Path" fill="#DDE1E6" fill-rule="nonzero"></path>
                <path d="M512.921118,450.94186 L510.830731,447.375969 L503.810189,435.496124 L496.90797,423.55814 L493.456861,417.589147 L491.721446,414.604651 C491.270471,413.882176 490.868609,413.131183 490.518488,412.356589 C492.490551,412.356589 494.462613,412.356589 496.434675,412.356589 L503.139688,412.531008 L513,412.763566 L513,411 L496.474117,411 C494.245686,411 492.017256,411 489.749384,411.193798 L489,411.193798 L489.236647,411.891473 C489.656563,412.994334 490.212918,414.042253 490.89318,415.011628 L492.707477,417.957364 L496.336072,423.771318 L503.593262,435.496124 L510.751849,447.29845 L513,451 L512.921118,450.94186 Z" id="Path" fill="#DDE1E6" fill-rule="nonzero"></path>
                <path d="M488,411.565184 L474.909697,434.503695 L461.467715,457.8706 L461.2528,458.260048 L460.764355,458.260048 C451.89421,458.474245 443.024065,458.532662 434.153919,458.649496 L407.543483,459 L406,459 L406.507982,457.559041 C406.683822,457.07223 406.820586,456.58542 407.055039,455.94283 C407.305392,455.388306 407.599376,454.854394 407.934239,454.346092 L409.653562,451.483646 L413.072671,445.778227 L419.910889,434.347916 L426.768644,422.917605 L430.187753,417.212186 L431.926614,414.369212 L432.805814,412.928253 C433.156757,412.327941 433.654046,411.825618 434.251608,411.467822 C434.853054,411.150721 435.525051,410.989981 436.205385,411.000484 L447.928044,411.000484 L461.291875,411.000484 L474.636169,411.136791 L481.318084,411.136791 L484.659042,411.136791 L486.319752,411.136791 C486.905885,411.37046 487.47248,411.506766 488,411.565184 Z M488,411.565184 L486.33929,411.409404 L484.67858,411.409404 L481.337622,411.409404 L474.655706,411.584656 L461.311413,411.93516 L447.967119,412.188301 L441.285204,412.324608 L437.944246,412.324608 L436.283536,412.324608 C435.862164,412.301303 435.442633,412.395719 435.072194,412.597222 C434.446986,412.928253 433.997617,413.979764 433.411484,414.933912 L431.731237,417.815831 L428.370741,423.560195 L421.591137,435.048923 L414.83107,446.518178 L411.451036,452.24307 L409.770789,455.124988 C409.495505,455.540087 409.253778,455.976346 409.047891,456.42964 L408.539909,457.967962 L407.523946,456.546475 L434.134382,456.410168 C443.004527,456.410168 451.874672,456.273861 460.764355,456.410168 L460.060996,456.819089 L488,411.565184 Z" id="Shape" fill="#DDE1E6" fill-rule="nonzero"></path>
                <path d="M432.276633,412.756323 L419.742814,435.026527 L413.554487,446.200699 L410.470146,451.787785 L408.937798,454.600864 L407.208995,457.316266 L406.776795,458 L406.36424,457.29673 L392.867792,434.303722 L386.247264,422.75838 L382.927177,416.8978 L381.276956,414.00658 C380.549508,412.943809 380.109719,411.712579 380,410.431627 C380.024052,409.122321 380.441397,407.850097 381.198375,406.778532 L382.848595,403.887312 L386.188327,398.124409 L392.848147,386.579066 L399.586548,375.09233 L402.965571,369.348962 C404.065718,367.395435 405.224802,365.441908 406.482112,363.664199 L406.953604,363 L407.444741,363.625129 C408.804112,365.534916 410.012651,367.546555 411.05951,369.641991 L414.418888,375.756529 L421.098353,387.96607 L427.89569,400.136541 L431.294359,406.212009 C431.912709,407.194355 432.432535,408.234718 432.846352,409.318116 C433.176894,410.491583 432.968314,411.750346 432.276633,412.756323 L432.276633,412.756323 Z M432.276633,412.756323 C432.915421,411.772828 433.107978,410.567233 432.807061,409.435328 C432.382355,408.359437 431.856125,407.325965 431.235422,406.348756 L427.718881,400.312359 L420.784025,388.239564 L413.731296,376.20584 L410.214754,370.208513 C409.128744,368.155385 407.873697,366.195167 406.462467,364.347933 L407.425096,364.347933 C402.906634,371.908081 398.840019,379.87847 394.439431,387.575365 L387.956421,399.31606 L384.675625,405.17664 L383.04505,408.087395 C382.504593,408.838797 382.184906,409.724841 382.121712,410.646514 C382.209667,411.581139 382.541486,412.476735 383.084341,413.244705 L384.714916,416.15546 L387.956421,422.016039 L394.439431,433.639523 L407.228641,457.081842 L406.383885,457.081842 L408.151979,454.464117 L409.762908,451.709644 L413.024059,446.200699 L419.487423,435.182809 L432.276633,412.756323 Z" id="Shape" fill="#DDE1E6" fill-rule="nonzero"></path>
                <path d="M322.471094,317.16173 L309.248447,339.82599 L302.725275,351.216937 L299.453894,356.902608 L297.827998,359.765049 C297.563478,360.287785 297.234418,360.775207 296.848543,361.215876 C296.401058,361.690469 295.820626,362.018521 295.183469,362.156952 C286.250836,362.509856 277.651218,362.607885 268.85571,362.823548 L255.750597,363 L249.188247,363 L245.916866,363 L244.271381,363 C243.666958,362.963373 243.065196,362.891362 242.469183,362.784337 L241,362.607885 L241.685619,361.255087 C242.214525,360.255193 242.704252,359.294511 243.272336,358.2358 L244.976589,355.392965 L248.385093,349.687688 L255.24128,338.277135 L262.136646,326.905793 L265.623507,321.220123 L267.347348,318.396893 C267.876201,317.308853 268.654876,316.361557 269.619685,315.632481 C270.715452,315.105514 271.938425,314.901512 273.145724,315.044308 L276.475872,315.044308 L283.116579,315.044308 L296.378404,315.358 C305.252269,315.358 314.0086,315.201154 322.980411,315.358 L322.980411,315.358 C322.884804,315.977789 322.71376,316.583536 322.471094,317.16173 L322.471094,317.16173 Z M322.471094,317.16173 C322.717747,316.603824 322.895366,316.017844 323,315.416817 L323,315.416817 C314.126135,315.416817 305.369804,315.593269 296.397993,315.671692 L283.09699,315.985384 L276.456283,316.14223 L273.126135,316.14223 C272.122595,316.034197 271.109212,316.217986 270.207358,316.671586 C269.426007,317.322869 268.808653,318.148946 268.40516,319.083095 L266.740086,321.984747 L263.449116,327.748841 L256.808409,339.296635 L250.108935,350.785611 L246.778786,356.530099 L245.094123,359.412146 L243.585762,362.294193 L242.802198,360.764943 C243.291925,360.764943 243.722886,360.961001 244.251792,360.980607 L255.731008,360.980607 L268.85571,360.980607 C277.533684,360.980607 286.485905,361.157058 294.967989,361.098241 C295.888677,360.980607 296.47635,360.215982 297.024845,359.2553 L298.729097,356.451676 L302.157191,350.864034 L308.9742,339.649538 L322.471094,317.16173 Z" id="Shape" fill="#DDE1E6" fill-rule="nonzero"></path>
                <path d="M328.520398,316 L354.194023,316.117743 L367.030835,316.117743 L373.449241,316.117743 C374.543881,316.050038 375.641603,316.050038 376.736243,316.117743 C377.92602,316.262804 379.013668,316.867774 379.770398,317.805397 C384.45778,325.223222 388.736717,332.582175 393.229602,339.960752 L399.803605,351.08749 L403.090607,356.66067 L404.724383,359.447261 L406.241461,362.371218 L407,363.823385 L405.366224,363.823385 L402.001423,364 L398.675522,364 L392.043169,363.882257 L378.797913,363.666394 L365.552657,363.39166 L358.920304,363.215045 L355.594402,363.215045 C353.083365,363.549687 350.671778,362.105999 349.759488,359.721995 L348.125712,356.817661 L344.83871,350.930499 L338.284156,339.29354 L325,316.156991 L325,316.156991 L325,316.156991 L328.520398,316 Z M328.520398,316 L325.058349,316.176615 L325.058349,316.176615 L338.67315,339.136549 L345.577799,350.577269 L349.020398,356.287817 L350.751423,359.133279 C351.18505,360.054741 351.856969,360.841146 352.696395,361.409648 C353.61098,361.823276 354.615745,361.992236 355.613852,361.900245 L378.817362,361.900245 L392.062619,361.900245 L398.694972,361.900245 L402.020873,361.900245 L405.268975,361.782502 L404.374288,363.313164 L402.954459,360.467702 L401.359583,357.661488 L398.13093,352.068684 L391.693074,340.843827 C387.453036,333.386754 383.271347,325.713818 378.99241,318.433361 C378.405722,317.655293 377.53962,317.140845 376.580645,317.000818 C375.627609,316.843827 374.518975,316.902698 373.449241,316.843827 L367.030835,316.686836 L354.194023,316.372854 L328.520398,316 Z" id="Shape" fill="#DDE1E6" fill-rule="nonzero"></path>
                <path d="M298.818922,360.799135 L311.239617,338.722497 L317.361385,327.645035 L320.432112,322.106304 L321.947791,319.346724 L323.69968,316.665431 L324.132731,316 L324.526414,316.685002 L338.049421,339.720643 L344.682977,351.287392 L348.009597,357.158838 L349.663066,360.055418 C351.408008,362.137183 351.449058,365.149288 349.761486,367.277297 L348.088334,370.154306 L344.74203,376.025752 L338.069105,387.57293 L331.258391,398.865678 L327.872718,404.600124 L326.179882,407.477132 C325.589358,408.416564 324.900413,409.336424 324.211467,410.275855 L323.719364,411 L323.384733,410.177998 C322.08558,408.220849 320.9439,406.146271 319.841588,404.091265 L316.475599,397.926246 L309.743622,385.615781 L302.89354,373.36403 L299.468499,367.238154 C298.80452,366.267086 298.318082,365.187146 298.031556,364.048002 C297.90068,362.906625 298.179542,361.75597 298.818922,360.799135 L298.818922,360.799135 Z M298.818922,360.799135 C298.176478,361.78316 297.91102,362.963941 298.070924,364.126288 C298.380672,365.248475 298.872692,366.312824 299.527551,367.277297 L303.031329,373.36403 L310.0192,385.537495 L317.125176,397.652246 L320.688006,403.699835 C321.84937,405.656984 323.030419,407.751133 324.368941,409.571281 L323.384733,409.571281 C323.975258,408.63185 324.60515,407.751133 325.156306,406.79213 L326.770406,403.875979 L329.978922,398.004532 L336.455005,386.26164 L342.970457,374.636176 L346.238025,368.76473 L347.871808,365.848578 C348.44176,365.111973 348.789865,364.229726 348.8757,363.304285 C348.754894,362.372161 348.403178,361.484452 347.852124,360.720849 L346.238025,357.824269 L342.990141,351.952822 L336.494373,340.307787 L323.679996,316.822002 L324.50673,316.822002 L322.735157,319.385867 L321.121057,322.125876 L317.912541,327.97775 L311.574247,338.859497 L298.818922,360.799135 Z" id="Shape" fill="#DDE1E6" fill-rule="nonzero"></path>
                <path d="M293.775012,364.012804 C294.950051,363.918908 296.095668,364.411918 296.836764,365.330414 C297.523696,366.294038 298.053614,367.296995 298.662039,368.299951 L302.214457,374.199695 L309.338918,386.136842 L316.541886,397.936329 L320.153183,403.836073 C321.33078,405.802654 322.645764,407.769235 323.666348,409.873477 L324,410.56178 L323.234562,410.679775 L321.585926,410.955097 C321.004647,411.002901 320.420436,411.002901 319.839157,410.955097 L296.385352,410.955097 L283.019627,410.955097 L276.346577,410.955097 L272.990426,410.955097 C271.697895,411.099055 270.390423,410.895415 269.202489,410.365122 C268.571096,409.980899 268.050297,409.438728 267.69124,408.791857 L266.847295,407.336587 L265.159406,404.445713 L261.822882,398.644298 L255.169459,387.277459 L248.574916,375.635299 L245.277645,369.735555 L243.609382,366.825015 L242.785065,365.369745 C242.621285,365.091695 242.477008,364.802565 242.353279,364.50445 L242.157013,363.698151 L242,363.088511 L242.608425,363.088511 C244.746105,362.970496 246.888648,362.970496 249.026328,363.088511 L255.424605,363.245838 L268.201532,363.540825 L293.775012,364.012804 Z M293.775012,364.012804 L268.260412,363.894809 L255.463858,363.894809 L249.085208,363.894809 C246.963908,363.844874 244.841447,363.903949 242.726185,364.071802 L243.177597,363.42283 L243.413116,364.229128 C243.413116,364.229128 243.648636,364.622444 243.766395,364.838768 L244.629966,366.274373 L246.376735,369.125915 L249.850646,374.848666 L256.798468,386.294169 L263.62853,397.779003 L267.063188,403.541086 L268.770704,406.412294 L269.614648,407.847898 C269.795991,408.17841 270.059707,408.456203 270.380086,408.654197 C271.266035,408.940958 272.200137,409.047926 273.127812,408.96885 L276.483964,408.96885 L283.157013,409.086844 L296.522738,409.322834 L309.868837,409.617821 L316.561513,409.794814 L319.898037,409.794814 C320.427228,409.834181 320.958603,409.834181 321.487793,409.794814 L323.136429,409.57849 L322.704643,410.404454 C321.801819,408.339544 320.486836,406.353297 319.387745,404.327718 L316.011967,398.467306 L309.044519,386.372832 L302.07707,374.357021 L298.583533,368.339283 C297.994734,367.355992 297.464816,366.372702 296.817137,365.369745 C296.090567,364.439735 294.950928,363.931398 293.775012,364.012804 L293.775012,364.012804 Z" id="Shape" fill="#DDE1E6" fill-rule="nonzero"></path>
                <path d="M351.843972,364.30289 C369.32695,363.758398 387.163121,363.330584 404.822695,363 L406,363 L405.646809,363.991752 L405.293617,364.925165 L404.920804,365.70301 L404.155556,367.219807 L402.585816,370.175616 C401.545863,372.120228 400.447045,374.064839 399.348227,376.009451 L392.696454,387.560443 L385.907329,398.975313 C383.57234,402.864536 381.355083,406.559297 378.74539,410.331844 L378.451064,410.759658 L378.058629,410.759658 L351.274941,410.895781 C342.347045,410.895781 333.419149,411.031904 324.491253,410.993012 L323,410.993012 L323.765248,409.767906 L337.834043,386.879829 L351.843972,364.30289 Z M351.843972,364.30289 L338.501182,387.638228 L325.079905,410.584643 L324.353901,409.340092 C333.281797,409.126185 342.209693,409.087292 351.137589,408.951169 L377.921277,408.620586 L377.05792,409.0484 C379.53026,405.528653 381.865248,401.678323 384.180615,397.925222 L391.048227,386.549245 L397.778487,375.076037 L401.074941,369.242203 L402.683924,366.344732 L403.449173,364.905719 L403.802364,364.186213 L404.077069,363.60283 L404.88156,364.555689 C387.359338,364.614028 369.758629,364.516797 351.843972,364.30289 Z" id="Shape" fill="#DDE1E6" fill-rule="nonzero"></path>
                <path d="M410.122032,364 L436.131529,364.117508 L449.136277,364.117508 L458.87037,364.117508 C460.106899,364.05158 461.307517,364.547643 462.141026,365.468855 C462.864051,366.354914 463.515088,367.298019 464.087844,368.289056 L465.762108,371.070088 L469.130104,376.671321 L475.885565,387.854203 C480.304843,395.374739 484.763058,402.836522 489.123932,410.396228 L490,411.904252 L488.247863,411.904252 C483.750712,412.119684 479.389839,411.904252 474.951092,411.904252 L461.712726,411.68882 L448.454891,411.395049 L441.835708,411.218787 L438.526116,411.218787 C437.33036,411.298488 436.13221,411.104297 435.021842,410.65083 C433.98444,410.005405 433.168985,409.055181 432.68566,407.928552 L431.050332,405.030012 L427.779677,399.252516 L421.238367,387.658355 L414.580247,376.122949 L411.251187,370.365038 C410.1415,368.406565 408.992877,366.546015 408.058405,364.489618 L408.058405,364.489618 C408.731933,364.270348 409.422089,364.106601 410.122032,364 Z M410.122032,364 C409.405938,364.066776 408.69632,364.191212 408,364.37211 L408,364.37211 C408.953941,366.330583 410.1415,368.289056 411.270655,370.247529 L414.65812,375.966271 L421.452517,387.423338 L428.344255,398.802067 L431.790123,404.501224 L433.503324,407.34101 C433.909002,408.26866 434.588726,409.048183 435.450142,409.573669 C436.41134,409.912553 437.436712,410.026421 438.448243,409.90661 L441.777303,409.90661 L448.396486,409.90661 L461.654321,409.90661 C470.473409,409.90661 479.37037,410.082872 488.111586,409.90661 L487.216049,411.492973 C482.971985,403.913682 478.572175,396.373561 474.250237,388.813854 L467.845204,377.435126 L464.632953,371.735969 L463.017094,368.896183 C462.544597,367.952802 461.997739,367.049014 461.381766,366.19349 C460.749162,365.469361 459.828214,365.067176 458.87037,365.096745 L455.619183,365.096745 L449.116809,364.920482 L436.112061,364.626711 L410.122032,364 Z" id="Shape" fill="#DDE1E6" fill-rule="nonzero"></path>
                <path d="M510.618687,375.836598 L513,371.918777 L513,369 L512.767677,369.43096 L509.476431,375.190158 L502.893939,386.747731 C498.61532,394.583373 494.143098,402.144768 490,410 L503.784512,387.276636 L510.618687,375.836598 Z" id="Path" fill="#DDE1E6" fill-rule="nonzero"></path>
                <path d="M513,409.606605 L503.203704,409.866605 L496.601852,410.046605 C494.403629,410.196595 492.198222,410.196595 490,410.046605 C492.190974,410.309933 494.396389,410.423514 496.601852,410.386605 L503.203704,410.386605 L513,410.386605 L513,409.606605 Z" id="Path" fill="#DDE1E6" fill-rule="nonzero"></path>
                <path d="M492.475134,403.981826 L495.538256,398.410161 L501.684009,387.266832 L513,367.115655 L513,367.115655 L501.430375,387.169765 L494.991966,398.157786 L491.753252,403.651797 C490.797246,405.224287 489.89977,406.893846 488.846213,408.369269 C487.812165,406.738538 486.89518,405.049566 485.939174,403.321768 L482.75899,397.497728 L476.437643,385.849649 L469.999235,374.298637 L466.780031,368.474597 L465.180184,365.581991 C464.627085,364.824486 464.265687,363.945456 464.126626,363.019413 C464.208452,362.119128 464.539361,361.259005 465.082632,360.53449 L466.701989,357.641884 L469.940704,351.817844 L476.398623,340.286245 C480.632364,332.889715 484.573451,325.24081 488.865723,317.941347 L489.412012,318.620818 C489.744519,319.060752 490.038263,319.528409 490.289977,320.018587 L492.026396,322.988848 L495.499235,328.909955 L502.425402,340.771582 L509.254017,352.69145 L512.668324,358.651384 L513,359.214374 L513,359.059067 L512.746366,358.612557 L509.390589,352.613796 L502.718057,340.616274 L496.123565,328.560512 L492.84583,322.522924 L491.187452,319.513837 C490.920789,318.984461 490.621043,318.472236 490.289977,317.980173 L489.25593,316.601817 L488.787682,316 L488.319434,316.640644 C487.06091,318.464327 485.895322,320.349813 484.827085,322.289963 L481.471308,327.978108 L474.798776,339.373812 L468.184774,350.827757 L464.887529,356.535316 L463.248661,359.408509 C462.475427,360.459005 462.040095,361.717907 462,363.019413 C462.166825,364.282377 462.63512,365.487241 463.365723,366.533251 L465.004591,369.38703 L468.301836,375.21107 L474.876817,386.665014 L481.54935,398.060719 L484.885616,403.768278 C485.978194,405.709624 487.090283,407.650971 488.377965,409.417596 L488.787682,410 L489.216909,409.43701 C490.40378,407.680124 491.491535,405.858917 492.475134,403.981826 L492.475134,403.981826 Z" id="Path" fill="#DDE1E6" fill-rule="nonzero"></path>
                <path d="M513,356 L511.027938,352.789883 L504.007395,340.863813 L497.105177,328.859922 L493.634347,322.867704 C492.648316,321.077821 491.543961,319.326848 490.656532,317.51751 C490.947289,317.440701 491.244186,317.388629 491.543961,317.361868 C491.958094,317.361868 492.608874,317.361868 493.141331,317.361868 L496.493837,317.361868 L503.19885,317.536965 L512.921118,317.750973 L512.921118,316 L503.21857,316 L496.513558,316 L493.161052,316 C492.589154,316 492.115859,316 491.405916,316 C490.695974,316 490.26212,316.252918 489.749384,316.330739 L489,316.466926 L489.335251,317.14786 C490.360723,319.287938 491.662284,321.155642 492.845522,323.140078 L496.493837,328.976654 L503.751027,340.766537 L510.909614,352.614786 L512.881676,355.980545 L513,356 Z" id="Path" fill="#DDE1E6" fill-rule="nonzero"></path>
                <path d="M486.516224,319.879016 L473.591757,341.751806 L467.207617,352.746168 L464.044832,358.25301 L462.424393,361.016092 C461.86033,362.091058 460.819632,362.842084 459.613029,363.044929 C450.925132,363.373407 442.491038,363.470018 433.920282,363.701885 C425.349525,363.933752 416.895908,364.030364 408.266581,363.991719 L407.719927,363.991719 L407.4466,363.547307 L407.134226,363.083573 L407.134226,363.083573 L407.134226,363.083573 C407.079382,362.953281 407.04007,362.817107 407.017086,362.677806 C406.994305,362.55647 406.994305,362.432019 407.017086,362.310683 C407.03785,362.204345 407.070593,362.100645 407.114703,362.001527 L407.114703,362.001527 L407.114703,362.001527 L407.309936,361.615082 L407.68088,360.842192 C407.926657,360.344364 408.200413,359.86055 408.500862,359.393023 L410.199394,356.571974 L413.59646,350.968521 L420.410114,339.742292 C424.939534,332.245258 429.605618,324.844835 434.213132,317.386445 L434.388842,317.115934 L434.701216,317.115934 L461.350608,317.270512 L488,317.270512 L488,317.270512 L488,317.270512 L486.516224,319.879016 Z M486.516224,319.879016 L487.980477,317 L487.980477,317 L461.331085,317.405767 L434.701216,318.043402 L435.208824,317.753568 C430.796543,325.327891 426.48188,332.940859 422.01103,340.457215 L415.431656,351.780055 L412.093161,357.422153 L410.414151,360.243202 C410.122009,360.698855 409.854805,361.169708 409.613693,361.653726 L409.262273,362.349328 L409.086563,362.697128 L409.086563,362.697128 L409.086563,362.697128 C409.095044,362.613609 409.095044,362.529458 409.086563,362.445939 C409.09741,362.356088 409.09741,362.265278 409.086563,362.175427 C409.086563,362.001527 409.086563,362.040171 409.086563,362.175427 L409.086563,362.175427 L409.242749,362.407294 L408.422768,361.962882 C416.856861,362.098138 425.466665,361.962882 433.998375,361.962882 C442.530085,361.962882 451.159412,362.136783 459.534935,362.078816 C461.487272,361.924238 462.209636,359.547601 463.439608,357.847243 L466.797627,352.456334 L473.455094,341.61655 L486.516224,319.879016 Z" id="Shape" fill="#DDE1E6" fill-rule="nonzero"></path>
                <path d="M432.173203,318.002058 L419.783788,340.188272 L413.628412,351.3107 L410.50156,356.823045 L408.967632,359.598765 L407.276379,362.315844 L406.843733,363 L406.411086,362.296296 L392.900724,339.289095 L386.352033,327.77572 L383.048189,321.911523 L381.376602,319.018519 C380.651811,317.973638 380.180606,316.775957 380,315.519547 C380.037428,314.19651 380.47613,312.91558 381.258607,311.84465 L382.930195,308.971193 L386.253705,303.106996 L392.92039,291.574074 L399.665738,280.0607 L403.067911,274.313786 C404.147983,272.353909 405.336298,270.454917 406.627409,268.625514 L407.079721,268 L407.551699,268.605967 C408.939091,270.526789 410.13765,272.575636 411.130864,274.72428 L414.493705,280.86214 L421.219387,293.13786 L428.063064,305.354938 L431.465237,311.453704 C432.109954,312.431928 432.606883,313.498832 432.940167,314.62037 C433.132348,315.803717 432.8576,317.015131 432.173203,318.002058 L432.173203,318.002058 Z M432.173203,318.002058 C432.836407,317.028498 433.09698,315.838481 432.900836,314.679012 C432.548092,313.573762 432.045254,312.52153 431.40624,311.55144 L427.905738,305.49177 L420.944067,293.352881 L413.864401,281.272634 L410.304903,275.252058 C409.234412,273.188115 407.977175,271.225288 406.548747,269.38786 L407.473036,269.38786 C406.234095,271.147119 405.231142,273.180041 404.149526,275.095679 L400.944011,280.959877 L394.473983,292.688272 L387.925292,304.416667 L384.66078,310.280864 L383.028524,313.193416 C382.466702,313.91299 382.113124,314.771336 382.005905,315.675926 C382.174277,316.613042 382.550475,317.501131 383.107187,318.27572 L384.719777,321.188272 L387.964624,327.052469 L394.473983,338.780864 L407.276379,362.237654 L406.430752,362.237654 L408.181003,359.618313 L409.793593,356.881687 L413.03844,351.408436 L419.469137,340.442387 L432.173203,318.002058 Z" id="Shape" fill="#DDE1E6" fill-rule="nonzero"></path>
                <path d="M293.508814,269.03849 C294.683531,268.924588 295.846617,269.349504 296.673178,270.194545 C297.377125,271.137858 298.0292,272.119026 298.626489,273.133668 L302.181515,279.129478 L309.291567,291.08191 L316.518818,302.995154 L320.132444,308.873399 C321.323964,310.832814 322.593616,312.792229 323.628871,314.927992 L324,315.692164 L323.160076,315.692164 C322.046689,315.692164 320.913768,315.946888 319.800381,315.966482 L316.479752,315.966482 L309.818961,315.966482 L296.419247,315.966482 L283.117199,315.966482 L276.475941,315.966482 L273.135779,315.966482 C271.850524,316.090883 270.555514,315.867608 269.385422,315.319875 C268.763413,314.949554 268.235266,314.439875 267.842306,313.830719 L266.982849,312.341564 L265.303001,309.461224 L261.962839,303.582978 L255.302049,292.042023 L248.71939,280.442286 L245.437828,274.564041 C244.284113,272.659858 243.227953,270.697895 242.273464,268.685795 L242,268 L242.703192,268 C244.851834,268 246.96141,268 249.090519,268 L255.419247,268.156753 L268.115769,268.450665 L293.508814,269.03849 Z M293.508814,269.03849 L268.115769,268.920925 L249.070986,268.920925 C246.96141,268.920925 244.832301,268.920925 242.761791,269.097272 L243.19152,268.391883 C244.188038,270.359932 245.283295,272.276083 246.473082,274.132969 L249.930443,279.834867 L256.845164,291.238663 L263.66222,302.701242 L267.060981,308.422734 L268.779895,311.28348 L269.600286,312.674665 C269.817133,312.99505 270.096157,313.268282 270.420677,313.478025 C271.291284,313.812093 272.228777,313.933004 273.155312,313.830719 L276.495474,313.830719 L283.136732,313.948284 L296.43878,314.16382 L309.740829,314.477326 L316.382087,314.653674 L319.722249,314.653674 C320.816103,314.653674 321.890424,314.555703 322.984278,314.496921 L322.515484,315.319875 C321.597427,313.262489 320.347308,311.263886 319.233921,309.245688 L315.796093,303.171501 L308.920438,291.08191 L301.947118,279.266637 L298.450691,273.231638 C297.905658,272.209289 297.299006,271.221218 296.634111,270.272922 C295.830854,269.410271 294.682749,268.956792 293.508814,269.03849 Z" id="Shape" fill="#DDE1E6" fill-rule="nonzero"></path>
                <path d="M325,314.409485 C325.899483,312.396705 326.924706,310.442234 328.069623,308.557599 L331.354316,302.705714 L337.923701,291.157993 L344.571292,279.649285 L347.895088,273.894931 L349.556986,271.008 C350.069502,269.872254 350.863488,268.885435 351.864092,268.140576 C353.00483,267.608834 354.266003,267.386792 355.520267,267.496869 L358.844063,267.496869 L365.511206,267.399338 L378.80639,267.243287 L392.121125,267.087237 L398.768717,267.087237 C401.015656,266.970921 403.267129,266.970921 405.514068,267.087237 L407,267.243287 L406.413448,268.608727 C405.446876,270.628341 404.349663,272.583096 403.128755,274.460613 L399.687649,280.195461 L392.864092,291.606637 L386.001431,302.998308 L382.579876,308.713649 L380.859323,311.542061 C380.324767,312.670311 379.510496,313.643822 378.493562,314.370472 C377.344576,314.895781 376.073629,315.098121 374.817835,314.955661 L364.846447,314.955661 L351.531712,314.955661 L338.216977,314.838623 L331.569385,314.838623 C329.373574,314.810303 327.180765,314.66706 325,314.409485 Z M325,314.409485 C327.214312,314.526499 329.43328,314.526499 331.647592,314.409485 L338.295184,314.233928 L351.609919,313.882815 L364.905103,313.609727 L371.572246,313.492689 L374.896042,313.492689 C375.860676,313.604957 376.837971,313.463747 377.731044,313.083057 C378.47711,312.460623 379.066414,311.672256 379.451598,310.781316 L381.113495,307.913892 L384.476395,302.179044 L391.221745,290.728855 L397.967096,279.278665 L401.329995,273.563324 C402.492438,271.719149 403.537267,269.803739 404.458274,267.828476 L405.357654,269.349966 C403.178822,269.179601 400.99232,269.127508 398.807821,269.193916 L392.140677,269.193916 L378.825942,269.193916 L365.511206,269.193916 L355.539819,269.193916 C354.580277,269.065872 353.603853,269.186801 352.704816,269.545029 C351.927723,270.132046 351.309509,270.903017 350.906056,271.788252 L349.185503,274.636169 L345.724845,280.351511 L338.823081,291.704169 L331.823557,302.998308 L328.343348,308.655131 C327.111847,310.503139 325.995295,312.424876 325,314.409485 L325,314.409485 Z" id="Shape" fill="#DDE1E6" fill-rule="nonzero"></path>
                <path d="M411.139596,268 L436.958383,268.117647 L449.867776,268.117647 L456.322473,268.117647 C457.414507,268.117647 458.428537,268.117647 459.579073,268.117647 C460.80321,268.184685 461.93966,268.777461 462.699168,269.745098 L476.193579,291.960784 L482.823781,303.098039 L486.119382,308.666667 C487.282385,310.515197 488.343516,312.426574 489.297979,314.392157 L490,315.843137 L488.400951,315.843137 L485.046849,316 L481.731748,316 L475.082045,315.882353 L461.821641,315.666667 L448.561237,315.392157 L441.931034,315.215686 L438.615933,315.215686 C436.085995,315.527254 433.671255,314.062348 432.765755,311.666667 L431.127705,308.784314 L427.851605,302.901961 L421.299405,291.294118 L408,268.215686 L408,268.215686 L411.139596,268 Z M411.139596,268 L408.078002,268.196078 L408.078002,268.196078 L421.728419,291.117647 L428.631629,302.509804 L432.083234,308.215686 L433.818787,311.058824 C434.25273,311.980068 434.926578,312.76603 435.768847,313.333333 C436.669675,313.777732 437.675802,313.961054 438.674435,313.862745 L441.989536,313.862745 L448.619738,313.862745 L461.899643,313.862745 L475.160048,313.862745 L485.124851,313.862745 L488.381451,313.745098 L487.484423,315.27451 C486.569455,313.346239 485.554015,311.467815 484.442331,309.647059 L481.205232,304.039216 L474.711534,292.803922 L461.938644,270.313725 C460.866112,268.588235 458.487039,269 456.361474,268.882353 L449.906778,268.705882 L436.997384,268.411765 L411.139596,268 Z" id="Shape" fill="#DDE1E6" fill-rule="nonzero"></path>
                <path d="M513,314.028986 C505.651694,314.028986 498.303388,314.202899 490.935382,314.357488 L503.622537,292.772947 L513,276.57971 L513,276 L502.873916,292.038647 L488.768322,314.782609 L488,316 L489.497242,316 C497.377463,316 505.15918,316 513,316 L513,314.028986 Z" id="Path" fill="#DDE1E6" fill-rule="nonzero"></path>
                <path d="M492.623421,309.773702 L495.687715,304.154369 L501.835821,292.954864 L513,272.9054 L513,272.9054 L501.562572,292.876546 L495.141217,303.899835 L491.920781,309.42127 C490.944891,311.026793 490.06659,312.730214 488.993111,314.23784 C487.891999,312.598839 486.894626,310.892055 486.006889,309.127576 L482.825488,303.25371 L476.462687,291.505977 L470.021814,279.758244 L466.78186,273.884378 L465.161883,270.967024 C464.61805,270.210877 464.27545,269.328081 464.166475,268.402102 C464.176057,268.003586 464.283309,267.613568 464.47876,267.266488 L465.259472,265.87634 L466.879449,262.958986 L470.119403,257.08512 L476.618829,245.337387 L483.040184,233.589654 L486.221584,227.715787 C487.158439,226.051525 488.017222,224.308945 489.071183,222.76216 C491.276693,226.462696 493.423651,230.22197 495.590126,233.942086 L502.538462,245.924773 L509.36969,257.9662 L512.785304,263.996702 L513,264.368714 L513,264.212077 C512.946695,264.124812 512.900985,264.033102 512.863375,263.937964 L509.506315,257.887881 L502.811711,246.08141 L496.214696,233.902927 C494.009185,229.830379 491.862227,225.757832 489.598163,221.724444 L489.188289,221 L488.641791,221.685284 C487.325844,223.495633 486.132574,225.392592 485.070034,227.363355 L481.65442,233.119744 L474.959816,244.652102 L468.343284,256.223619 L465.025258,262.097486 L463.366246,264.99526 C463.073479,265.484749 462.839265,265.895919 462.52698,266.483306 C462.199528,267.127148 462.019489,267.836204 462,268.558739 C462.117757,269.856064 462.575662,271.09902 463.32721,272.161377 L464.966705,275.059151 L468.265212,280.933017 L474.862227,292.524114 L481.576349,304.056472 L484.913892,309.83244 C485.973739,311.811462 487.18761,313.703499 488.544202,315.490932 L488.973594,316 L489.363949,315.471352 C490.562597,313.638957 491.651027,311.73635 492.623421,309.773702 L492.623421,309.773702 Z" id="Path" fill="#DDE1E6" fill-rule="nonzero"></path>
                <path d="M512.921504,260.822852 L510.841374,257.378301 L503.83565,245.31253 L497.104661,233.128661 L493.650859,227.066251 C492.630417,225.255401 491.570728,223.444551 490.668029,221.574652 C490.942244,221.485747 491.225112,221.426363 491.511856,221.397504 L493.121014,221.397504 L496.476697,221.397504 L503.148814,221.574652 L512.960752,221.791167 L512.960752,220 L503.148814,220 L496.476697,220 L491.394113,220 C490.813375,220.102636 490.24227,220.254074 489.686836,220.452712 L489,220.610178 L489.313982,221.259722 C490.373671,223.405185 491.629599,225.334133 492.826656,227.322132 L496.457073,233.227076 L503.698283,245.155065 L510.841374,257.378301 L513,261 L512.921504,260.822852 Z" id="Path" fill="#DDE1E6" fill-rule="nonzero"></path>
                <path d="M487.217184,223.178585 L474.085442,245.843575 L467.568496,257.225213 L464.319809,262.925861 L462.695465,265.776185 C462.432602,266.304761 462.089253,266.788912 461.677804,267.211176 C461.212897,267.669305 460.618076,267.971472 459.975179,268.076102 C451.109785,268.39062 442.518377,268.508565 433.770406,268.724796 L420.697375,268.901713 L414.18043,269 L410.912172,269 L409.268258,269 C408.671168,268.971257 408.076406,268.905609 407.487351,268.803426 L406,268.626509 L406.704535,267.270148 C407.213365,266.247963 407.702625,265.206121 408.250597,264.242908 L409.972792,261.372926 L413.417184,255.790223 L420.247255,244.349612 L427.155609,232.928659 L430.61957,227.247669 L432.361337,224.397345 C432.886693,223.304199 433.673347,222.35872 434.651074,221.645308 C435.739034,221.095828 436.967175,220.890228 438.173747,221.055586 L441.481146,221.055586 L448.135084,221.055586 L461.423389,221.153873 C470.288783,221.153873 479.154177,220.996613 488,221.153873 L488,221.153873 C487.79467,221.84916 487.532852,222.526339 487.217184,223.178585 L487.217184,223.178585 Z M487.217184,223.178585 C487.503405,222.54308 487.738988,221.885772 487.921718,221.212845 L487.921718,221.212845 C479.075895,221.212845 470.308353,221.389761 461.345107,221.468391 L448.056802,221.78291 L441.422434,221.940169 L438.095465,221.940169 C437.088837,221.838011 436.07358,222.014771 435.159905,222.451261 C434.374917,223.10007 433.757295,223.929474 433.359427,224.869122 L431.695943,227.758761 L428.408115,233.655983 L421.773747,245.234196 L415.080668,256.753436 L411.734129,262.532713 L410.051074,265.402695 L408.544153,268.311991 L407.761337,266.778713 C408.250597,266.778713 408.681146,266.95563 409.229117,266.975287 L433.711695,266.975287 L459.779475,267.112889 C460.699284,267.112889 461.305967,266.306935 461.853938,265.36338 L463.556563,262.552371 L466.961814,256.95001 L473.772315,245.745288 L487.217184,223.178585 Z" id="Shape" fill="#DDE1E6" fill-rule="nonzero"></path>
                <path d="M411.21454,173 L436.930862,173.117888 L449.769541,173.117888 L456.198622,173.117888 C457.29477,173.040498 458.394942,173.040498 459.491091,173.117888 C460.681107,173.277726 461.759881,173.906483 462.491328,174.866558 C467.167023,182.293492 471.472559,189.641834 475.972915,197.029472 L489.142789,219.310274 L490,220.783872 L488.305061,220.783872 C487.175101,220.783872 486.025659,220.960704 484.8957,221 L481.583749,221 L474.940366,220.882112 L461.653599,220.665984 L448.366833,220.371265 L441.72345,220.194433 L438.411499,220.194433 C437.202987,220.275053 435.993091,220.059327 434.885246,219.565698 C433.883603,218.863563 433.099972,217.889308 432.625327,216.756038 L430.988833,213.848138 L427.696365,207.953745 L421.13091,196.302497 L414.487527,184.710192 L411.156094,178.91404 C409.98261,177.017894 408.928499,175.049213 408,173.019648 L408,173.019648 L408,173.019648 L411.21454,173 Z M411.21454,173 L408.019482,173 L408.019482,173 C408.96678,175.031142 410.040434,176.999864 411.234022,178.894392 L414.623901,184.651248 L421.442623,196.145313 L428.339273,207.600082 L431.80708,213.33729 L433.521502,216.186246 C433.947432,217.124859 434.621486,217.927017 435.469708,218.504707 C436.411697,218.871416 437.428472,218.999595 438.430981,218.878019 L441.762414,218.878019 L448.405797,218.878019 L461.692564,218.878019 L474.97933,218.878019 L481.622713,218.878019 L484.954146,218.878019 C486.045141,218.878019 487.097173,218.760131 488.168686,218.701187 L487.35044,220.273025 L474.453314,197.854687 C470.206225,190.388457 465.998099,182.725747 461.731528,175.416701 C461.157345,174.634745 460.305777,174.106782 459.354716,173.943103 C458.313908,173.819208 457.265963,173.766693 456.218104,173.785919 L449.789024,173.609087 L436.930862,173.314368 L411.21454,173 Z" id="Shape" fill="#DDE1E6" fill-rule="nonzero"></path>
                <path d="M513,219.118547 C505.829388,219.216539 498.678367,219.294933 491.44898,219.451721 L491.605714,219.118547 L492.330612,217.629063 L493.878367,214.669694 L497.071837,208.790153 L503.635102,197.031071 L510.257143,185.271989 L512.941224,180.685946 L512.941224,180 C511.863673,181.646272 510.825306,183.312141 509.767347,184.978011 L502.714286,196.384321 L495.896327,207.947419 L492.546122,213.82696 L490.92,216.786329 C490.645714,217.276291 490.39102,217.785851 490.136327,218.295411 L489.74449,219.07935 L489.391837,220.020076 L489,221 L490.214694,221 C497.777143,221 505.359184,221 512.941224,221 L513,219.118547 Z" id="Path" fill="#DDE1E6" fill-rule="nonzero"></path>
                <path d="M495.382173,209.093333 L501.449885,198.083077 L512.960979,177.504615 L512.960979,177.504615 L501.254782,197.966154 L494.913925,208.84 C492.962892,212.211282 491.011859,215.68 488.846213,218.953846 C488.377965,218.252308 487.909717,217.550769 487.48049,216.829744 L485.900153,213.906667 L482.719969,208.060513 L476.359602,196.368205 L469.921194,184.675897 L466.682479,178.829744 L465.063122,175.906667 C464.519408,175.183413 464.176199,174.329771 464.068095,173.431795 C464.208328,172.505148 464.577084,171.627881 465.141163,170.878974 L466.76052,167.975385 L470.018745,162.129231 L476.515685,150.436923 L482.954093,138.744615 L486.134277,132.898462 C487.051262,131.222564 487.968248,129.546667 489.021806,128.007179 L502.679036,151.391795 L509.624713,163.532308 L513,169.378462 L513,169.339487 L509.761285,163.493333 L502.971691,151.294359 L489.587605,126.76 L489.158378,126 L488.612089,126.721026 C487.255812,128.506727 486.042421,130.396328 484.983168,132.372308 L481.627391,138.140513 L474.935348,149.637949 L468.301836,161.174359 L464.98508,167.020513 L463.326702,169.904615 C462.578646,170.956362 462.12107,172.18632 462,173.470769 C462.080603,174.766533 462.519613,176.014542 463.268171,177.075897 L464.926549,179.96 L468.223795,185.806154 L474.818286,197.362051 L481.510329,208.859487 L484.866106,214.705641 L486.543994,217.589744 C487.129304,218.525128 487.812165,219.538462 488.495027,220.37641 L488.924254,221 L489.314461,220.356923 C491.382555,216.537436 493.333588,212.795897 495.382173,209.093333 Z" id="Path" fill="#DDE1E6" fill-rule="nonzero"></path>
                <path d="M512.921504,164.864631 L510.959117,161.596429 L503.992641,149.799962 L497.104661,137.771433 L493.670482,131.815184 C492.650041,130.055384 491.708095,128.295583 490.726901,126.497105 L491.590352,126.381074 C492.119465,126.342291 492.650772,126.342291 493.179886,126.381074 L496.515944,126.381074 L503.188062,126.55512 L513,126.767844 L513,125.027381 L503.188062,125.027381 L496.515944,125.027381 L493.179886,125.027381 C492.5983,124.990873 492.014946,124.990873 491.433361,125.027381 L489.784955,125.29812 L489,125.433489 L489.35323,126.110336 C490.393295,128.19889 491.668847,130.113399 492.865904,132.085923 L496.496321,137.887464 L503.717907,149.799962 L510.860998,161.596429 L512.921504,165 L512.921504,164.864631 Z" id="Path" fill="#DDE1E6" fill-rule="nonzero"></path>
                <path d="M461.110822,171.697507 C443.636106,172.241832 425.808365,172.669517 408.157136,173 L407,173 L407.353025,172.02799 L407.706049,171.055981 L408.059074,170.278373 C408.314036,169.772928 408.549386,169.248042 408.82396,168.762038 L410.373346,165.807128 C411.412807,163.863109 412.511106,161.919089 413.609405,159.97507 L420.258034,148.427594 L427.043951,136.97732 C429.358223,133.089281 431.613658,129.395644 434.182892,125.643686 L434.496692,125.216002 L434.967391,125.216002 L461.738422,125.060481 C470.662098,125.060481 479.585775,124.924399 488.509452,125.060481 L490,125.060481 L489.235113,126.285213 L475.19258,149.166322 L461.110822,171.697507 Z M461.110822,171.697507 L474.447306,148.369274 L487.803403,125.390964 L488.529064,126.635136 C479.605388,126.848978 470.681711,126.887859 461.758034,127.02394 L434.967391,127.373864 L435.83034,126.946179 C433.339556,130.484295 431.025284,134.314013 428.711011,138.065971 L421.846645,149.438484 L415.119565,160.908199 L411.844282,166.740257 L410.236059,169.636846 C409.961484,170.103411 409.726134,170.589416 409.471172,171.075421 L409.118147,171.794708 L408.863185,172.377914 L408.059074,171.425344 C425.61224,171.425344 443.204631,171.425344 461.110822,171.697507 Z" id="Shape" fill="#DDE1E6" fill-rule="nonzero"></path>
                <path d="M513,124.027079 C505.640095,124.123791 498.280189,124.201161 490.920284,124.355899 L503.647198,102.750484 L513,86.5802708 L513,86 L502.897395,102.015474 L488.749803,124.781431 L488,126 L489.479874,126 C497.372534,126 505.166535,126 513,126 L513,124.027079 Z" id="Path" fill="#DDE1E6" fill-rule="nonzero"></path>
                <path d="M216.578006,313.258603 L229.061299,290.94251 L235.21476,279.745312 L238.29149,274.127138 C239.26298,272.216648 240.349334,270.366642 241.544593,268.587266 L241.95613,268 L242.367667,268.587266 C242.994772,269.526891 243.700264,270.427365 244.327368,271.386565 L246.012711,274.264166 L249.363799,280.038945 L256.085572,291.568926 L262.709361,303.17721 L266.001658,309.049866 L267.667404,311.947043 C268.418783,313.003558 268.878393,314.239091 269,315.529363 C268.991946,316.250941 268.817598,316.960967 268.490478,317.604368 C268.176926,318.230785 267.922165,318.622295 267.647807,319.131259 L265.982061,322.00886 L262.65057,327.881517 L256.007184,339.450649 L249.285411,350.980631 L245.855935,356.579229 C244.777225,358.544707 243.586378,360.446665 242.289279,362.275706 L241.740563,363 L241.309429,362.236555 L228.022658,337.845456 L221.300885,325.708634 L217.930199,319.640223 C217.381483,318.622295 216.754379,317.682671 216.284051,316.586441 C215.819502,315.497737 215.929785,314.249229 216.578006,313.258603 L216.578006,313.258603 Z M216.578006,313.258603 C215.943068,314.247701 215.840301,315.486885 216.303648,316.566866 C216.773976,317.623944 217.420677,318.524418 217.969393,319.601072 L221.418467,325.630332 L228.297016,337.688852 L235.273551,349.688646 L242.289279,361.668865 L241.329026,361.668865 C242.554313,359.832622 243.666857,357.923759 244.660517,355.952813 L247.874426,350.080157 L254.321842,338.334844 L260.828048,326.589532 L264.100748,320.716876 L265.7273,317.800124 L266.51118,316.410262 C266.694018,316.057863 266.800834,315.671078 266.824732,315.274882 C266.687881,314.349664 266.331788,313.470476 265.786091,312.710488 L264.159539,309.793736 L260.926033,303.92108 L254.459021,292.175768 L248.089993,280.430455 L244.895681,274.557799 L243.308324,271.621471 C242.759607,270.642695 242.132503,269.781372 241.544593,268.841747 L242.367667,268.841747 C241.135077,270.565709 240.009405,272.363501 238.996982,274.225015 L235.763476,279.725737 L229.316061,290.785906 L216.578006,313.258603 Z" id="Shape" fill="#DDE1E6" fill-rule="nonzero"></path>
                <path d="M161.741151,407.549931 L174.828317,385.048497 L181.303636,373.738979 L184.521791,368.113621 L186.121117,365.271541 C186.583685,364.128677 187.515241,363.242532 188.676138,362.841072 C189.788477,362.698881 190.90979,362.639917 192.030821,362.664667 L195.268481,362.664667 L201.763304,362.507863 L214.733446,362.213854 L227.703588,362.03745 L234.178907,362.03745 L237.43607,362.03745 C238.554893,361.964952 239.678011,361.997763 240.790754,362.135452 L242,362.331458 L241.70744,363.331086 C241.590417,363.683896 241.473393,364.036706 241.336865,364.389516 L240.966289,365.173538 C240.732242,365.709286 240.47869,366.218901 240.205634,366.702381 L238.606309,369.662064 L235.349145,375.54223 L228.620275,387.086955 C226.377318,391.007065 224.036841,394.73117 221.696364,398.514077 C219.355887,402.296983 216.976403,406.07989 214.401878,409.745193 L214.226342,410 L213.933783,410 L187.525403,409.568788 L161.058512,409.568788 L161.058512,409.568788 C161.247824,408.883385 161.475738,408.209346 161.741151,407.549931 L161.741151,407.549931 Z M161.741151,407.549931 C161.450421,408.232643 161.202878,408.933123 161,409.64719 L161,409.64719 L187.525403,409.27478 L213.972791,408.627961 L213.524199,408.882769 C215.942692,405.197865 218.185649,401.336556 220.428606,397.494848 L227.079461,385.930522 L233.6523,374.326996 L236.831447,368.44683 L238.372261,365.526348 L239.113412,364.056306 L239.464484,363.331086 C239.519333,363.154606 239.591188,362.983926 239.679027,362.821472 L240.57621,364.036706 C239.547982,363.905573 238.510216,363.866218 237.475078,363.919102 L227.723092,363.919102 L214.75295,363.919102 L201.782808,363.8211 L195.307489,363.8211 L192.050325,363.8211 C191.010974,363.760972 189.969041,363.760972 188.929689,363.8211 C188.032507,363.997505 187.486395,364.781527 186.979292,365.781155 L185.282446,368.544833 L181.849747,373.993786 L175.101373,385.1269 L161.741151,407.549931 Z" id="Shape" fill="#DDE1E6" fill-rule="nonzero"></path>
                <path d="M217.082838,407.221446 L229.368128,385.481512 L241.495914,363.663517 L241.869985,363 L242.30312,363.624486 C243.017588,364.49939 243.675182,365.418461 244.271917,366.37613 L245.965082,369.244864 L249.351412,375.001849 L256.124071,386.515818 L262.798291,398.068817 L266.145245,403.923377 L267.799034,406.811627 C268.541074,407.890239 268.957662,409.156116 269,410.46097 C268.904381,411.752646 268.470035,412.997163 267.73997,414.071282 L266.086181,416.959532 L262.739227,422.814092 L256.045319,434.367091 L249.27266,445.88106 L245.846954,451.481923 L244.134101,454.370173 L242.283432,457.180362 L241.751857,458 L241.259658,457.160846 C236.613299,448.944947 232.144131,440.631471 227.596211,432.376541 L220.666048,420.023418 L217.220654,413.856615 C216.548228,412.872527 216.12914,411.740196 216,410.558546 C216.025409,409.365393 216.401757,408.205561 217.082838,407.221446 L217.082838,407.221446 Z M217.082838,407.221446 C216.436074,408.21507 216.100411,409.376186 216.118128,410.558546 C216.266868,411.726557 216.691854,412.843224 217.35847,413.817584 L220.902303,419.945357 L227.970282,432.200904 C232.754458,440.338743 237.479569,448.515612 242.381872,456.57539 L241.358098,456.57539 C245.925706,449.003492 249.981426,440.963229 254.430906,433.31327 L260.986999,421.60415 L264.274889,415.749589 L265.90899,412.841824 C267.260619,411.395048 267.311301,409.176227 266.027117,407.670296 L264.393016,404.762531 L261.144502,398.90797 L254.627786,387.19885 L248.189822,375.489729 L244.980684,369.635168 L243.385958,366.707888 C242.782934,365.773106 242.125558,364.873887 241.417162,364.01479 L242.244056,364.01479 L236.002972,374.865242 L229.663447,385.618118 L217.082838,407.221446 Z" id="Shape" fill="#DDE1E6" fill-rule="nonzero"></path>
                <path d="M163.573662,411 L189.230223,411.117455 L202.068214,411.117455 L208.477499,411.117455 C209.572566,411.083017 210.668698,411.115704 211.759829,411.215334 C212.942298,411.388239 214.016952,412.003196 214.770251,412.93801 C219.470393,420.337684 223.723828,427.67863 228.229749,435.058728 L234.79441,446.158238 L238.076741,451.717781 L239.727617,454.497553 L241.242539,457.433931 L242,458.902121 L240.329702,458.902121 L236.989105,459 L233.66793,459 L227.064424,459 L213.818569,458.76509 L200.572714,458.491028 L193.949787,458.314845 L190.648034,458.314845 C189.436669,458.371103 188.23169,458.107957 187.152061,457.551387 C186.150089,456.873538 185.350906,455.932647 184.840834,454.830343 L183.209379,451.933116 L179.927049,446.060359 L173.284699,434.275693 L160,411.176183 L160,411.176183 L160,411.176183 L163.573662,411 Z M163.573662,411 L160.116532,411.176183 L160.116532,411.176183 L173.711985,434.099511 L180.606821,445.492659 L184.044529,451.189233 L185.773093,454.047308 C186.200674,454.964843 186.873166,455.744333 187.715301,456.298532 C188.625925,456.719956 189.631606,456.888897 190.628612,456.787928 L213.818569,456.787928 C222.616769,456.787928 231.51208,456.944535 240.252013,456.787928 L239.358598,458.314845 L237.940786,455.495922 L236.328754,452.696574 L233.10469,447.097879 L226.675983,435.900489 C222.441971,428.461664 218.266225,420.787928 213.973946,413.525285 C213.386234,412.753779 212.534635,412.2304 211.585031,412.057096 C210.547428,411.933657 209.50271,411.881334 208.458077,411.900489 L202.048792,411.724307 L189.210801,411.430669 L163.573662,411 Z" id="Shape" fill="#DDE1E6" fill-rule="nonzero"></path>
                <path d="M139.971537,469.883683 L138.99012,468.080775 L135.869213,462.342488 C134.946681,460.403877 133.239015,458.581583 134.122291,456.817447 C138.381641,449.489499 142.89616,442.006462 147.253652,434.600969 L153.848775,423.570275 L157.10708,417.96769 C157.892213,416.610662 158.677347,415.214863 159.521366,413.915994 L171.90685,435.3958 L178.600115,446.833603 L181.956561,452.533118 L183.624971,455.382876 C184.231861,456.20252 184.653553,457.141272 184.861556,458.135703 C184.802677,459.132448 184.447662,460.089948 183.840882,460.88853 L182.250987,463.77706 L179.031938,469.592892 L178.816027,470 L179.679674,470 L179.679674,470 L183.055749,464.319871 L184.743786,461.470113 C185.489383,460.506998 185.926808,459.345927 186,458.135703 C185.822849,456.955374 185.380183,455.829245 184.704529,454.840065 L183.114634,451.932149 L179.934842,446.116317 L173.516374,434.484653 C169.17851,426.73021 164.958417,418.975767 160.502783,411.415186 L159.737278,410 L158.755861,411.337641 C157.497515,413.131263 156.356738,415.002619 155.340529,416.940226 L152.160737,422.562197 L145.781526,433.825525 C141.600689,441.424879 137.419852,448.830372 133.258644,456.565428 C132.825345,457.715876 132.940735,458.998001 133.572697,460.054927 L135.221478,462.865913 L138.519039,468.449111 L139.402315,469.941842 L139.971537,469.883683 Z" id="Path" fill="#DDE1E6" fill-rule="nonzero"></path>
                <path d="M182.45951,470 L188.511613,460.339144 C197.229755,460.339144 206.025738,460.339144 214.646579,460.244057 L239.458255,460.110935 L238.77715,461.40412 L237.103578,464.199683 L233.736974,469.790808 L233.620213,470 L235.99435,470 L238.893911,465.245642 L240.586943,462.450079 L242.163214,459.540412 L243,458 L241.209667,458 L214.627119,458.323296 C205.772756,458.456418 196.918393,458.513471 188.04457,458.722662 L187.577527,458.722662 L187.363465,459.103011 L181,469.980983 L182.45951,470 Z" id="Path" fill="#DDE1E6" fill-rule="nonzero"></path>
                <path d="M236.669118,470 C238.580882,466.862676 240.263235,463.647887 242.213235,460.626761 C242.442647,460.878521 242.652941,461.130282 242.825,461.362676 C242.997059,461.59507 243.341176,462.272887 243.608824,462.737676 L245.157353,465.642606 L247.489706,470 L249,470 L246.170588,465.06162 L244.526471,462.214789 C244.220588,461.730634 244.029412,461.285211 243.627941,460.742958 C243.226471,460.200704 242.844118,459.910211 242.519118,459.503521 L242.079412,459 L241.735294,459.56162 C239.632353,462.97007 237.911765,466.514085 236,470 L236.669118,470 Z" id="Path" fill="#DDE1E6" fill-rule="nonzero"></path>
                <path d="M323.519264,470 L327.136285,463.541708 L336.638298,446.656775 C342.836113,435.821629 348.584244,424.636334 354.899367,413.937356 C356.586372,416.320752 358.139819,418.795009 359.552616,421.34883 L364.694652,430.083086 L374.920069,447.590504 L385.008626,465.097923 L387.804485,469.961095 L388,469.961095 L385.223692,464.981207 L375.447959,447.298714 L365.672225,429.518958 L360.823462,420.667985 C359.292244,417.625808 357.527373,414.705722 355.544566,411.933729 L354.821162,411 L354.156412,411.972634 C352.318574,414.696011 350.637148,417.458292 349.033928,420.259479 L344.106958,428.604682 L334.331225,445.31454 L324.555492,462.102209 L320,470 L323.519264,470 Z" id="Path" fill="#DDE1E6" fill-rule="nonzero"></path>
                <path d="M232.028571,342.928808 L212.872,376.033204 L203.390857,392.654002 L198.689143,400.984001 L196.318857,405.139201 C195.934755,405.901295 195.458349,406.612333 194.900571,407.256 C194.258303,407.954706 193.416258,408.434248 192.491429,408.628 C179.532571,409.1376 167.078857,409.2748 154.353143,409.608 L135.352,409.8824 L125.851429,410 L121.110857,410 L118.740571,410 C117.860713,409.95012 116.984755,409.845387 116.117714,409.6864 L114,409.412 L114.990857,407.452 C115.748571,405.982 116.467429,404.472801 117.264,403.061601 L119.750857,398.886801 L124.705143,390.556802 L134.613714,373.896804 L144.716571,357.393606 L149.748571,349.102807 L152.274286,344.947608 C153.030824,343.360277 154.157463,341.981585 155.557714,340.929608 C157.143385,340.152663 158.917429,339.853246 160.667429,340.067208 L165.485714,340.067208 L175.2,340.067208 L194.473143,340.204408 C207.315429,340.204408 220.157714,339.969208 233,340.204408 L233,340.204408 C232.783908,341.148036 232.457829,342.062535 232.028571,342.928808 L232.028571,342.928808 Z M232.028571,342.928808 C232.368643,342.115258 232.622622,341.267761 232.786286,340.400408 L232.786286,340.400408 C219.944,340.243608 207.101714,340.655208 194.259429,340.772808 L175.005714,341.223608 L165.291429,341.439208 L160.473143,341.556808 C159.017851,341.395628 157.54735,341.661021 156.237714,342.321208 C155.100849,343.273023 154.202285,344.481679 153.614857,345.849208 L151.225143,350.063207 L146.445714,358.491206 L136.731429,375.347204 L127.017143,392.124802 L122.16,400.533201 L119.731429,404.727601 L117.555429,408.9416 L116.428571,406.7072 C117.114748,406.848959 117.809064,406.947152 118.507429,407.0012 L135.138286,407.0012 L154.139429,407.0012 C166.729143,407.0012 179.629714,407.256 191.986286,407.1776 C193.326857,406.9816 194.162286,405.884 194.939429,404.472801 L197.426286,400.376401 L202.4,392.203202 L212.289143,375.856804 L232.028571,342.928808 Z" id="Shape" fill="#DDE1E6" fill-rule="nonzero"></path>
                <path d="M241.313007,341 L278.834901,341.176027 L297.595848,341.176027 L306.995783,341.176027 C308.583692,341.079456 310.175958,341.079456 311.763866,341.176027 C313.507847,341.396064 315.102195,342.277675 316.220564,343.640402 C323.051573,354.456273 329.318197,365.154792 335.876743,375.911987 L345.490756,392.106454 L350.297762,400.203688 L352.691534,404.252305 L354.910152,408.516066 L356,410.628388 L353.625689,410.745739 L348.701914,411 L343.855984,411 L334.125203,410.843532 L314.760947,410.511037 L295.299384,410.100307 L285.568602,409.846046 L280.722673,409.728695 C278.947226,409.834154 277.176974,409.448576 275.604282,408.613859 C274.14782,407.643175 272.983477,406.290407 272.237431,404.702151 L269.843659,400.477508 L265.036653,392.008662 L255.461563,375.090528 L236,341.391171 L236,341.391171 L236,341.391171 L241.313007,341 Z M241.313007,341 L236.233539,341.254261 L236.233539,341.254261 L256.064872,374.718916 L266.165423,391.343671 L271.205968,399.656049 L273.735971,403.802459 C274.84989,406.681181 277.832225,408.368128 280.858904,407.831517 L285.704833,407.831517 L295.435615,407.831517 L314.897178,407.831517 L334.358741,407.831517 L344.089523,407.831517 L348.935452,407.831517 L353.684074,407.635932 L352.399611,409.865605 L350.103146,405.719195 L347.767759,401.65102 L343.05806,393.49511 L333.638664,377.163733 C327.449886,366.308745 321.319494,355.121263 315.091794,344.520536 C314.22926,343.396882 312.966372,342.653605 311.569251,342.447332 C310.043475,342.287612 308.510349,342.209268 306.976322,342.212629 L297.595848,341.977927 L278.834901,341.52808 L241.313007,341 Z" id="Shape" fill="#DDE1E6" fill-rule="nonzero"></path>
                <path d="M226.390799,358.354522 L231.023779,350.427148 L233.330576,346.531632 L235.269062,343.765816 L253.122512,376.702401 L262.466012,393.647894 L267.137762,402.101163 L269.483329,406.347275 C270.275486,407.449924 270.775765,408.736763 270.937193,410.08697 C270.806326,411.426214 270.31736,412.704953 269.522099,413.787709 L267.157147,418.014344 L262.466012,426.467613 L253.064358,443.374151 L243.759628,460.339121 L239.146033,468.831345 L238.506332,470 L240.735591,470 L240.8519,469.805224 L245.717498,461.449343 L255.409925,444.718104 L265.005428,427.928431 L269.812872,419.533595 L272.197209,415.326438 C273.275424,413.76988 273.899786,411.941802 274,410.048014 C273.817338,408.174062 273.148961,406.380962 272.061515,404.847501 L269.677178,400.640344 L264.927888,392.284463 L255.371155,375.455836 L235.986301,342.012834 L235.404756,341 L234.78444,341.973879 L232.264409,345.869395 L230.073921,349.901253 L225.692944,357.964971 L216.853451,374.072928 L199,406.152499 L217.241148,374.287181 L226.390799,358.354522 Z" id="Path" fill="#DDE1E6" fill-rule="nonzero"></path>
                <path d="M231,469.921951 L230.095764,468.4 L224.906232,459.6 L214.546828,442.039024 L204.344681,424.321951 L199.253437,415.463415 C198.284425,414.058413 197.560127,412.501785 197.110789,410.858537 C196.890762,409.160922 197.280529,407.440644 198.211599,406 C197.256951,407.439113 196.84611,409.167113 197.051818,410.878049 C197.4831,412.53302 198.194316,414.103299 199.15515,415.521951 L204.148108,424.439024 L214.134024,442.273171 L223.962681,460.204878 L228.87701,469.160976 L229.348786,470 L231,469.921951 Z" id="Path" fill="#DDE1E6" fill-rule="nonzero"></path>
                <path d="M194.44254,413.01169 C195.386089,414.382542 196.172379,415.910064 197.037298,417.339668 L202.148185,426.093542 L212.350302,443.581708 L222.395161,461.206958 L227.427419,470 L229,470 L228.587198,469.314574 L223.299395,460.678201 L212.763105,443.385872 L202.344758,426.034791 L197.135585,417.280917 C196.251008,415.851313 195.464718,414.362959 194.481855,412.972522 C193.405674,411.620515 191.727313,410.887149 190,411.014161 C191.721475,410.906177 193.384983,411.654151 194.44254,413.01169 Z" id="Path" fill="#DDE1E6" fill-rule="nonzero"></path>
                <path d="M151.9839,470 L151.204882,468.694523 L146.258115,460.355055 L136.403532,443.71509 L126.334718,427.153063 L121.310049,418.891535 L118.778239,414.741286 L117.53181,412.675904 C117.299554,412.392276 117.097232,412.085384 116.928071,411.760121 L116.928071,411.46785 C119.63516,411.234033 122.439626,411.273003 125.205142,411.253518 L134.475461,411.253518 L152.996624,411.253518 L190,411.428881 L152.996624,410.824854 L134.455985,410.35722 L125.185666,410.103919 C122.089068,410.103919 119.03142,409.870102 115.876396,410.103919 L115,410.103919 L115.21423,411.000216 L115.525837,412.169301 C115.685246,412.607443 115.89435,413.025851 116.149052,413.416324 L117.337055,415.520675 L119.732537,419.729379 L124.5235,428.146785 L134.085952,445.001082 L143.823682,461.757956 L148.575695,469.941546 L151.9839,470 Z" id="Path" fill="#DDE1E6" fill-rule="nonzero"></path>
                <polygon id="Path" fill="#DDE1E6" fill-rule="nonzero" points="242.528035 470 256.540011 445.97725 276 412 255.442569 444.871194 240 470"></polygon>
                <path d="M351.106736,412.895078 L349.99158,415.012953 L347.663447,419.229275 L342.870233,427.642487 L333.088162,444.391192 L323.071322,461.003886 C321.232293,463.996114 319.393264,467.027202 317.495542,470 L321.095344,470 C322.621347,467.512953 324.134307,465.025907 325.634225,462.53886 L335.53368,445.809585 L345.31575,428.963731 C346.900446,426.146373 348.504705,423.329016 350.030708,420.472798 L352.319713,416.159326 L353.415305,413.963731 L353.943536,412.817358 L354.471768,411.437824 L355,410 L353.278356,410 C327.336305,410.485751 301.452947,411.107513 276,411.943005 C301.433383,412.253886 326.514611,412.409326 351.478455,412.409326 L351.106736,412.895078 Z" id="Path" fill="#DDE1E6" fill-rule="nonzero"></path>
                <path d="M417.301058,412.188181 L426.854497,412.421921 L431.631217,412.538792 C433.045282,412.501058 434.402316,413.094011 435.331217,414.155497 C436.230222,415.392596 437.035106,416.694776 437.739153,418.051172 L440.08836,422.180588 L444.806349,430.439419 L454.222751,446.996038 L467.574074,470 L471,470 C466.184127,461.88401 461.355203,453.76802 456.513228,445.65203 L446.607407,429.407065 L441.654497,421.265104 L439.168254,417.213602 C438.373988,415.779068 437.463942,414.411086 436.44709,413.123143 C435.210302,411.797195 433.447026,411.084017 431.631217,411.175305 L426.854497,411.175305 L417.301058,411.175305 L398.19418,411.175305 L360,411 L398.19418,411.623308 L417.301058,412.188181 Z" id="Path" fill="#DDE1E6" fill-rule="nonzero"></path>
                <path d="M392,470 L391.882812,469.804894 L386.84375,461.512897 L376.726562,444.948413 L366.785156,428.286376 L361.804687,419.955357 C360.164062,417.184854 358.445312,414.453373 357.039062,411.546296 C358.045562,411.285459 359.070757,411.102815 360.105469,411 C359.058597,411.097889 358.020537,411.273977 357,411.526786 L357,411.526786 C358.386719,414.453373 360.085938,417.223876 361.707031,420.013889 L366.570312,428.403439 L376.335938,445.18254 L385.945312,462.039683 L390.457031,469.980489 L392,470 Z" id="Path" fill="#DDE1E6" fill-rule="nonzero"></path>
                <path d="M481.71243,470 L496.554731,446.147163 L506.766234,429.569149 L511.852195,421.280142 L513,419.446809 L513,415 C512.775716,415.338061 512.577819,415.669622 512.406308,415.994681 L509.952381,420.187943 L505.044527,428.574468 L495.14966,445.386525 C490.479283,453.617021 485.670377,461.75 481,470 L481.71243,470 Z" id="Path" fill="#DDE1E6" fill-rule="nonzero"></path>
                <polygon id="Path" fill="#DDE1E6" fill-rule="nonzero" points="483.764916 462.035899 479 470 480.378282 470 484.552506 462.480497 493.629475 446.281671 512 414 493.25537 446.069037"></polygon>
                <path d="M471.238432,470 L471.00403,469.532989 L466.374591,461.048951 L457.115712,444.061417 L447.700566,427.171177 L442.992993,418.726057 L440.648973,414.503497 C439.842581,413.391445 439.313609,412.104089 439.105826,410.747948 C439.224185,409.42201 439.711215,408.155184 440.512238,407.089693 L442.797658,402.886592 L447.524764,394.441472 L456.998511,377.57069 C463.171097,366.732137 468.913946,355.523867 475.223266,344.860444 L476.024139,345.833384 C476.484653,346.497449 476.908507,347.186013 477.293817,347.896017 L479.833172,352.23533 L484.911882,360.913956 L495.049768,378.271207 L505.031386,395.784129 L510.031961,404.501672 C510.832835,405.980541 511.731376,407.401034 512.473649,408.899362 C513.211672,410.438456 513.100918,412.247862 512.180646,413.686227 C513.130534,412.247399 513.263616,410.420832 512.532249,408.860444 C511.80951,407.342657 510.930502,405.922165 510.129629,404.443296 L505.246254,395.667376 L495.479504,378.154454 L485.849489,360.505321 L481.102849,351.515354 L478.700229,347.098206 C478.300167,346.32166 477.856712,345.56807 477.371951,344.840985 L475.848338,342.895105 L475.164666,342 L474.480993,342.934022 C472.527643,345.619337 471.043097,348.440863 469.363216,351.204013 L464.460308,359.551839 L454.693559,376.247492 L445.04401,393.00152 L440.199702,401.368805 L437.797082,405.552448 C436.677247,407.103814 436.051154,408.95457 436,410.864701 C436.219582,412.704447 436.890438,414.462051 437.95335,415.982365 L440.336437,420.185467 L445.141678,428.57221 L454.752159,445.345698 L464.518909,462.04135 L469.167881,470 L471.238432,470 Z" id="Path" fill="#DDE1E6" fill-rule="nonzero"></path>
                <path d="M512.941946,404 L512.651674,403.49335 L507.620293,394.763378 L497.557531,377.225487 L487.63023,359.687597 L482.676255,350.899165 C481.263598,348.287968 479.657427,345.715744 478.418933,343.104547 C478.83328,343.006327 479.253409,342.934731 479.676778,342.890195 C480.43746,342.851847 481.19957,342.851847 481.960251,342.890195 L486.759414,343.007114 L496.435146,343.260439 L513,343.65017 L513,341 L496.454498,341 L486.778766,341 L481.979603,341 C481.14749,341 480.450837,341 479.463912,341 C478.476987,341 477.799686,341.370244 477.064331,341.50665 L476,341.701516 L476.464435,342.675843 C477.954498,345.813177 479.83159,348.521806 481.534519,351.444788 L486.740063,360.077328 L497.151151,377.32292 L507.407427,394.665945 L512.535565,403.337457 L512.941946,404 L512.941946,404 Z" id="Path" fill="#DDE1E6" fill-rule="nonzero"></path>
                <path d="M471.839028,346.268031 L453.013267,378.375266 L443.707462,394.496784 L439.074027,402.567243 L436.737842,406.621873 C435.902476,408.185967 434.397611,409.285677 432.649517,409.609495 C419.975711,410.094498 407.710738,410.2497 395.231614,410.579502 C382.75249,410.909304 370.429112,411.045105 357.852647,410.986905 L357.073918,410.986905 L356.645617,410.3467 L356.217317,409.667695 L356.217317,409.570695 L356.217317,409.570695 C356.119875,409.382176 356.054109,409.179014 356.022635,408.96929 C355.992455,408.782961 355.992455,408.593015 356.022635,408.406686 C356.043687,408.251617 356.089704,408.100947 356.158912,407.960483 L356.158912,407.960483 L356.158912,407.824682 L356.431467,407.262078 L356.976577,406.117469 C357.327005,405.341464 357.774774,404.701259 358.164138,404.002854 L360.636601,399.890024 L365.600995,391.644963 L375.529783,375.193643 C382.110039,364.193762 388.923913,353.349083 395.620978,342.407403 L395.874065,342 L396.36077,342 L435.180385,342.232802 L474,342.116401 L474,342.116401 L474,342.116401 L471.839028,346.268031 Z M471.839028,346.268031 L473.961064,342.0388 L473.961064,342.0388 L435.141449,342.640205 L396.341302,343.571412 L397.061626,343.144608 C390.656584,354.24149 384.368351,365.415971 377.8465,376.435252 L368.112394,393.022373 L363.245341,401.306234 L360.811815,405.438464 C360.385859,406.102646 359.995935,406.789102 359.643722,407.494879 L359.137549,408.523087 L358.884462,409.046891 L358.884462,409.163292 C358.884462,409.163292 358.884462,409.163292 358.884462,409.163292 C358.941127,409.039929 358.980434,408.909362 359.001271,408.775289 C359.032106,408.641226 359.032106,408.501949 359.001271,408.367886 C359.001271,408.115684 359.001271,408.193284 359.001271,408.367886 L359.001271,408.232085 L359.215421,408.561887 L358.027861,407.921682 C370.312302,408.135084 382.869299,407.921682 395.27055,407.921682 C407.671801,407.921682 420.267735,408.154484 432.454835,408.096284 C435.277726,407.844082 436.348478,404.371456 438.120085,401.888238 L442.987138,393.95358 L452.721244,378.084264 L471.839028,346.268031 Z" id="Shape" fill="#DDE1E6" fill-rule="nonzero"></path>
                <path d="M391.814446,344.495273 L373.721473,376.741357 L364.782567,392.942289 L360.322893,401.042754 L358.093057,405.092987 L355.6285,408.987442 L354.983021,410 L354.376662,408.948497 L334.816692,375.47566 L325.173626,358.651616 L320.361873,350.239594 L317.955997,346.033583 C316.91138,344.501915 316.241504,342.748039 316,340.912375 C316.074435,338.998957 316.713984,337.14987 317.838637,335.596444 L320.264074,331.390433 L325.114946,322.997883 L334.797132,306.193312 L344.577117,289.447157 L349.34975,281.190913 C350.927766,278.339972 352.651297,275.571289 354.513582,272.895725 L355.178621,272 L355.88278,272.85678 C357.924165,275.61158 359.711386,278.54434 361.222652,281.619303 L366.112645,290.557076 L375.89263,308.413151 L385.809535,326.191336 L390.777768,335.070693 C391.713748,336.498222 392.438382,338.052479 392.929364,339.685622 C393.174456,341.371205 392.776706,343.08706 391.814446,344.495273 Z M391.814446,344.495273 C392.764132,343.067827 393.141067,341.33753 392.870685,339.646677 C392.361303,338.038151 391.623606,336.510358 390.679968,335.109637 L385.613935,326.269225 L375.481871,308.627346 L365.193326,291.1023 L360.049054,282.320305 C358.481745,279.353379 356.64177,276.537345 354.552702,273.908283 L355.9219,273.908283 C354.122383,276.459151 352.674945,279.418936 351.090587,282.222943 L346.415754,290.712855 L337.026968,307.692677 L327.520823,324.59461 L322.76775,333.065049 L320.400993,337.290532 C319.540355,338.809369 318.836196,339.8414 318.933996,340.912375 C319.17865,342.274383 319.7121,343.568838 320.498793,344.709468 L322.86555,348.934951 L327.579503,357.40539 L337.026968,374.36574 L355.64806,408.383801 L354.396222,408.383801 L356.958578,404.489347 L359.305775,400.497531 L364.000168,392.533371 L373.349834,376.585579 L391.814446,344.495273 Z" id="Shape" fill="#DDE1E6" fill-rule="nonzero"></path>
                <path d="M189.790557,271.342797 C191.499929,271.1758 193.192846,271.794712 194.398138,273.027278 C195.375604,274.413362 196.277709,275.851856 197.100474,277.336416 L202.271851,286.072214 L212.614605,303.54381 L223.11289,320.917471 L228.362032,329.594508 C230.092305,332.532556 231.958667,335.313909 233.455645,338.447828 L234,339.564286 L232.794641,339.564286 C231.161575,339.681808 229.509067,339.936439 227.895442,339.956026 L223.054566,339.956026 L213.333932,339.956026 L193.892665,339.956026 L174.548603,339.956026 L164.827969,339.956026 L160.200948,339.956026 C158.321497,340.12732 156.430444,339.79627 154.71851,338.996263 C153.818084,338.460163 153.058136,337.714666 152.502206,336.822107 L151.238523,334.647951 L148.808365,330.436748 L143.948048,322.014342 L134.227414,305.149943 L124.778958,288.187609 L119.996406,279.726029 C118.309768,276.927644 116.778049,274.037413 115.408267,271.068579 L115,270.069643 L116.030387,270.069643 C119.14099,269.912947 122.232152,270.069643 125.303872,270.069643 L134.519033,270.304687 L152.968796,270.7356 L189.790557,271.342797 Z M189.790557,271.342797 L152.852148,271.166514 L134.402385,271.166514 L125.206666,271.166514 C122.115504,271.166514 119.043784,271.166514 116.030387,271.440732 L116.652508,270.383034 C118.092964,273.263654 119.689559,276.06229 121.43506,278.766267 L126.450907,287.090738 L136.443718,303.73968 L146.339324,320.486557 L151.296847,328.850202 L153.940859,333.120166 L155.146218,335.078865 C155.450344,335.566128 155.863058,335.975229 156.351577,336.273672 C157.594062,336.732755 158.920995,336.913234 160.23983,336.80252 L165.080706,336.80252 L174.80134,336.959216 L194.242607,337.292195 L213.683875,337.742696 L223.404509,337.997327 L228.245385,338.114849 C229.839569,338.114849 231.39487,337.958153 232.989054,337.899392 L232.30861,339.094198 C230.986603,336.077802 229.159124,333.218101 227.545499,330.201704 L222.218592,321.367972 L212.264663,303.73968 L202.116321,286.111388 L197.04215,277.316829 C196.246185,275.826846 195.370023,274.381784 194.417579,272.988104 C193.190385,271.780906 191.497992,271.179113 189.790557,271.342797 L189.790557,271.342797 Z" id="Shape" fill="#DDE1E6" fill-rule="nonzero"></path>
                <path d="M236,339.079741 C237.315116,336.126709 238.805007,333.253789 240.46184,330.476088 L245.27593,322.067088 L254.88454,305.229623 L264.669276,288.450553 L269.542074,280.080483 L271.968689,275.875983 C272.715068,274.219011 273.881738,272.783531 275.354207,271.710413 C277.015671,270.918159 278.861921,270.588545 280.696673,270.756615 L285.569472,270.756615 L295.354207,270.639823 L314.806262,270.40624 L334.258317,270.172656 L344.043053,270.055865 C347.305208,269.946119 350.570834,269.998091 353.827789,270.211587 L356,270.40624 L355.138943,272.352768 C353.714221,275.306665 352.11319,278.173177 350.344423,280.936955 L345.354207,289.248629 L335.27593,305.891442 L325.295499,322.51479 L320.305284,330.826463 L317.780822,334.953102 C316.993711,336.607708 315.794678,338.034867 314.297456,339.099207 C312.624856,339.851494 310.779093,340.140671 308.95499,339.936214 L294.356164,339.936214 L274.90411,339.936214 L255.452055,339.741561 L245.667319,339.644234 C242.437297,339.620566 239.21062,339.432154 236,339.079741 Z M236,339.079741 C239.259123,339.257777 242.525613,339.257777 245.784736,339.079741 L255.569472,338.826693 L275.021526,338.30113 L294.493151,337.911825 L304.277886,337.736637 L309.131115,337.639311 C310.544986,337.795806 311.975403,337.581044 313.279843,337.016422 C314.380675,336.127354 315.247151,334.984886 315.804305,333.687859 L317.996086,329.444429 L322.908023,321.093824 L332.692759,304.392616 L342.477495,287.710872 L347.409002,279.360268 C349.11027,276.671777 350.646032,273.883122 352.007828,271.009663 L353.299413,273.228705 C350.109069,272.989782 346.908281,272.918311 343.710372,273.014587 L333.925636,273.014587 L314.454012,273.111913 L295.001957,273.111913 L285.217221,273.111913 L280.344423,273.111913 C278.940717,272.935865 277.51503,273.109782 276.195695,273.618011 C275.068077,274.488568 274.168478,275.617095 273.573386,276.907643 L271.048924,281.053747 L266,289.32649 L255.902153,305.871977 L245.686888,322.339602 L240.579256,330.59288 C238.880737,333.326569 237.351478,336.160788 236,339.079741 Z" id="Shape" fill="#DDE1E6" fill-rule="nonzero"></path>
                <path d="M360.634186,272 L398.450709,272.176421 L417.35897,272.176421 L426.803324,272.176421 C428.406713,272.176421 429.912335,272.176421 431.593938,272.176421 C433.395021,272.245765 435.071903,273.115036 436.169464,274.548306 L455.93808,306.970596 L465.714844,323.240549 L470.564119,331.375525 C472.187062,334.061047 473.810005,336.785774 475.217859,339.726127 L476,341.784374 L473.692684,341.784374 L468.745641,342 L463.896366,342 L454.119602,341.843181 L434.683396,341.529544 L415.266743,341.098292 L405.489979,340.863064 L400.640704,340.745449 C398.853225,340.839129 397.074394,340.43908 395.498126,339.588911 C394.065383,338.597969 392.918769,337.245643 392.174026,335.66844 L389.964478,331.41473 L385.15431,322.946514 L375.553528,306.010081 L356,272.294035 L356,272.294035 L356,272.294035 L360.634186,272 Z M360.634186,272 L356.156428,272.294035 L356.156428,272.294035 L376.06192,305.774853 L386.053772,322.378045 L391.098582,330.689443 L393.640541,334.845141 C394.277144,336.197571 395.262762,337.354842 396.495356,338.197144 C397.822506,338.828581 399.296037,339.086076 400.758025,338.942033 L405.6073,338.942033 L415.384064,338.942033 L434.82027,338.942033 L454.256477,339.040045 L464.033241,339.040045 L468.882516,339.040045 L473.653577,338.883226 L472.34349,341.117894 C471.006745,338.294906 469.518498,335.546553 467.885286,332.884906 L463.133779,324.691123 L453.630764,308.303556 L434.937592,275.410809 C433.373309,272.901708 429.873228,273.450574 426.764217,273.313358 L417.339417,273.176141 L398.431155,272.725287 L360.634186,272 Z" id="Shape" fill="#DDE1E6" fill-rule="nonzero"></path>
                <path d="M513,338.067509 C501.431373,338.242293 489.843137,338.319975 478.27451,338.572441 L496.72549,306.897657 L513,278.466091 L513,278 L495.627451,305.810111 L475.117647,339.213317 L474,341 L476.156863,341 C488.45098,341 500.72549,341 513,340.883477 L513,338.067509 Z" id="Path" fill="#DDE1E6" fill-rule="nonzero"></path>
                <path d="M512.129471,274.21792 L493.997842,306.689655 L485.058618,322.993782 L480.598744,331.145845 C479.192656,333.936679 477.618745,336.639498 475.885689,339.239401 L475.320901,340 L474.697687,339.239401 C472.717776,336.644375 470.952637,333.891883 469.419845,331.009327 L464.531511,322.623233 L454.793794,305.831543 L445.172929,288.981345 L440.362497,280.536744 L437.947543,276.324194 C436.841836,274.788498 436.16914,272.983161 436,271.097513 C436.020427,270.045165 436.280191,269.011334 436.759542,268.074618 C437.207477,267.216507 437.558035,266.63143 437.986494,265.890334 L440.401448,261.677784 L445.231356,253.252685 L454.969073,236.42199 L464.70679,219.6303 L469.614599,211.263708 C471.161491,208.389878 472.905478,205.626895 474.834015,202.99463 L475.613033,202 L476.216771,203.053137 C479.527595,208.903901 482.643664,214.754664 485.954488,220.761447 L495.555877,238.489259 L505.293594,256.041549 L510.162453,264.876201 C510.960945,266.358395 511.856815,267.78208 512.557931,269.303279 C513.274195,270.905331 513.112122,272.764392 512.129471,274.21792 L512.129471,274.21792 Z M512.129471,274.21792 C513.033467,272.770563 513.136306,270.961009 512.402128,269.420294 C511.681536,267.899096 510.766191,266.47541 509.967698,265.012719 L504.981987,256.236574 L495.03004,238.684285 L484.902815,221.249011 C481.514089,215.398248 478.203265,209.547484 474.736638,203.852742 L476.138869,203.852742 C474.329683,206.501578 472.702957,209.270861 471.270011,212.141323 L466.615382,220.663934 L457.247698,237.670153 L447.802113,254.617863 L443.069583,263.10147 L440.752006,267.431034 L439.602955,269.381289 C439.335284,269.88778 439.182347,270.447111 439.15502,271.019503 C439.327,272.366241 439.836149,273.647594 440.635153,274.744488 L442.972205,278.996043 L447.68526,287.47965 L457.091895,304.446863 L466.362202,321.511588 L470.997355,330.053703 C472.416512,332.925057 474.064266,335.67731 475.92464,338.283776 L474.756114,338.283776 C476.537952,335.78633 478.164003,333.181028 479.624972,330.482759 L484.318552,322.467213 L493.686235,306.397117 L512.129471,274.21792 Z" id="Shape" fill="#DDE1E6" fill-rule="nonzero"></path>
                <path d="M512.921039,265 L512.407792,264.15531 L507.275325,255.374463 L497.01039,237.694905 L486.863896,220.015347 L481.81039,211.175568 C480.31013,208.50399 478.711169,205.8717 477.408312,203.180479 C477.809771,203.037766 478.227534,202.945383 478.651948,202.905463 L481.040519,202.905463 L485.955844,203.042971 L495.825974,203.278699 L513,203.671578 L513,201 L495.845714,201 L485.975584,201 L478.533506,201 C477.674929,201.164981 476.830233,201.394826 476.006753,201.687538 L475,201.923266 L475.473766,202.866176 C477.013506,205.96992 478.869091,208.759362 480.625974,211.705955 L485.955844,220.388582 L496.595844,237.773481 L507.077922,255.256599 L512.328831,263.998158 C512.545974,264.312462 512.743377,264.666053 512.940779,265 L512.921039,265 Z" id="Path" fill="#DDE1E6" fill-rule="nonzero"></path>
                <path d="M471.891848,205.240844 L452.781082,238.248013 L443.332625,254.83 L438.627839,263.120993 L436.275445,267.315491 C435.877998,268.082839 435.37392,268.789048 434.778468,269.41274 C434.106778,270.082251 433.242807,270.521203 432.309427,270.667169 C419.458749,271.117979 407.035778,271.294384 394.282307,271.607991 L375.327071,271.882397 L365.859173,272 L361.115504,272 L358.743669,272 C357.877305,271.947208 357.014245,271.849074 356.157981,271.705993 L354,271.451187 L355.010946,269.491142 C355.769155,268.021107 356.4496,266.492272 357.266133,265.081039 L359.735174,260.906141 L364.692697,252.575947 L374.607744,235.895959 L384.639438,219.274771 L389.674726,210.983778 L392.18265,206.848082 C392.956297,205.2929 394.089901,203.948328 395.487665,202.92799 C397.075378,202.154209 398.849652,201.854942 400.600719,202.06557 L405.422153,202.06557 L415.142787,202.06557 L434.428525,202.202773 C447.298644,202.202773 460.149322,201.987168 473,202.202773 L473,202.202773 C472.726557,203.248457 472.355517,204.265687 471.891848,205.240844 L471.891848,205.240844 Z M471.891848,205.240844 C472.31814,204.301153 472.656587,203.323431 472.902794,202.320376 L472.902794,202.320376 C460.052116,202.183173 447.201438,202.594782 434.35076,202.712385 L415.065022,203.163196 L405.344388,203.378801 L400.522954,203.496403 C399.060599,203.340229 397.584294,203.605285 396.265316,204.260821 C395.119149,205.196437 394.217986,206.401095 393.640745,207.769303 L391.249469,211.983401 L386.466917,220.431198 L376.84349,237.287591 L367.122856,254.065582 L362.262539,262.474178 L359.83238,266.668676 L357.654958,270.902374 L356.507924,268.648322 C357.20787,268.788675 357.91549,268.886851 358.627022,268.942329 L375.210423,268.942329 L394.165659,268.942329 L431.978925,269.138333 C433.344895,268.85476 434.477533,267.897027 434.992322,266.590274 L437.461363,262.513379 L442.418886,254.359589 L452.29505,238.032408 L471.891848,205.240844 Z" id="Shape" fill="#DDE1E6" fill-rule="nonzero"></path>
                <path d="M361.96592,133 L399.492697,133.17583 L418.265823,133.17583 L427.632911,133.17583 C429.237016,133.099309 430.844529,133.138483 432.443038,133.293051 C434.184081,133.53153 435.763382,134.442894 436.844206,135.832822 C443.640701,146.617081 449.950341,157.323193 456.513145,168.009768 L475.734177,200.382082 L477,202.511582 L474.507303,202.667876 C472.851996,202.785096 471.177215,202.94139 469.541383,203 L464.692308,203 L454.955209,202.82417 L435.481013,202.511582 L416.006816,202.081775 L406.269718,201.827798 L401.420643,201.710578 C399.657775,201.83228 397.89214,201.516934 396.279455,200.792353 C394.818595,199.780363 393.676659,198.370392 392.988315,196.728719 L390.592989,192.489255 L385.802337,184.029863 L376.221032,167.11108 L366.483934,150.250907 L361.615385,141.830589 C359.902075,139.076689 358.360655,136.218846 357,133.273514 L357,133.273514 L357,133.273514 L361.96592,133 Z M361.96592,133 L357.292113,133.136757 L357.292113,133.136757 C358.679637,136.06433 360.247082,138.902617 361.985394,141.635222 L366.951315,149.99693 L377.019474,166.739883 L387.107108,183.385152 L392.131451,191.707787 L394.663096,195.849567 C395.255873,197.205601 396.213436,198.369188 397.428432,199.20988 C398.811736,199.73737 400.300824,199.924941 401.771178,199.756908 L406.620253,199.756908 L416.357352,199.756908 L435.831548,199.756908 L455.305745,199.756908 L465.042843,199.756908 L469.891918,199.756908 C471.488802,199.756908 473.046738,199.581077 474.604674,199.502931 L473.397274,201.788725 L454.273612,169.338264 C448.080818,158.495395 441.926972,147.359475 435.675755,136.751047 C434.841946,135.610683 433.598967,134.840084 432.209348,134.602009 C430.69559,134.442712 429.174446,134.364455 427.652386,134.367569 L418.265823,134.133129 L399.512171,133.703321 L361.96592,133 Z" id="Shape" fill="#DDE1E6" fill-rule="nonzero"></path>
                <path d="M512.980729,199.095882 C501.803646,199.250768 490.645833,199.347572 479.488021,199.599262 L479.7,199.115243 C480.046875,198.398894 480.374479,197.682545 480.759896,196.985556 L482.976042,192.784266 L487.5625,184.304241 L496.985938,167.421635 L506.505729,150.616472 C508.664063,146.937923 510.783854,143.240012 512.980729,139.580824 L512.980729,139 C510.514063,142.678549 508.163021,146.434542 505.811979,150.190535 L495.675521,166.666564 L485.885938,183.258758 L481.0875,191.66134 L478.755729,195.920713 C478.370313,196.617701 477.984896,197.353411 477.61875,198.089121 L477.059896,199.212047 L476.539583,200.586663 L476,202 L477.715104,202 C489.489583,202 501.244792,202 513,201.883835 L512.980729,199.095882 Z" id="Path" fill="#DDE1E6" fill-rule="nonzero"></path>
                <path d="M511.808319,136.014227 L493.833151,168.01141 L484.962796,184.087759 C481.934371,189.414143 479.238095,194.876602 475.916597,200.08635 L475.33045,201 L474.724765,200.10579 C473.806468,198.745035 472.770942,197.423158 471.950337,196.042964 L469.508059,191.844063 L464.603964,183.465699 L454.83485,166.708973 L445.182967,149.874489 L440.357025,141.457247 L437.953823,137.258346 C436.832932,135.711898 436.157397,133.890462 436,131.99028 C436.188541,130.121032 436.861792,128.332547 437.953823,126.799972 L440.376563,122.601071 L445.222043,114.183829 L454.991156,97.3882237 L464.76027,80.6314974 L469.703441,72.2725736 C471.259537,69.3977331 473.02942,66.6426298 474.9983,64.030286 L475.818906,63 L476.424591,64.1080434 L495.962817,99.8570221 L505.907775,117.644034 L510.890023,126.527821 C511.829692,127.951714 512.523116,129.522092 512.941536,131.173827 C513.160896,132.870369 512.758594,134.588752 511.808319,136.014227 Z M511.808319,136.014227 C512.750138,134.585501 513.145319,132.867923 512.921998,131.173827 C512.482403,129.561741 511.768723,128.036408 510.81187,126.663896 L505.731931,117.838428 L495.630668,100.090294 L474.959224,64.9439358 L476.365976,64.9439358 C474.520525,67.5690984 472.868485,70.3237254 471.422805,73.1862234 L466.753169,81.6812227 L457.335743,98.6712213 L447.840165,115.583462 L443.092376,124.039583 L440.708713,128.277363 C439.888775,129.363093 439.345722,130.630475 439.126116,131.970841 C439.263061,133.320968 439.747574,134.613158 440.532869,135.722637 L442.877456,140.018735 L447.605707,148.494295 L457.062208,165.542612 L466.323328,182.493732 L470.953887,191.00817 L473.278936,195.265389 C474.099542,196.665023 475.017839,197.948021 475.87752,199.308776 L474.66615,199.308776 C478.08534,194.273982 480.976998,188.850401 484.14219,183.621214 L493.422848,167.797577 L511.808319,136.014227 Z" id="Shape" fill="#DDE1E6" fill-rule="nonzero"></path>
                <path d="M512.942188,125.902903 L512.595313,125.300905 L507.565625,116.581637 L497.525521,99.1042636 L487.620313,81.6268898 L482.686979,72.8687836 C481.241667,70.2860162 479.719271,67.722668 478.447396,65.1010619 L479.7,64.9262882 C480.463753,64.8728249 481.230476,64.8793176 481.993229,64.9457075 L486.772396,65.0622233 L496.407812,65.3146743 L513,65.7030604 L513,63.0037771 L496.427083,63.0037771 L486.791667,63.0037771 L481.993229,63.0037771 C481.156525,62.9870359 480.319637,63.0259591 479.488021,63.1202929 L477.117708,63.508679 L476,63.702872 L476.481771,64.7126759 C478.004167,67.7809259 479.796354,70.5384671 481.530729,73.4513628 L486.733854,82.0541145 L497.120833,99.2790374 L507.353646,116.581637 L512.479688,125.242647 C512.649307,125.485178 512.803773,125.738119 512.942188,126 L512.942188,125.902903 Z" id="Path" fill="#DDE1E6" fill-rule="nonzero"></path>
                <path d="M433.913043,130.0598 C408.488767,130.855282 382.634233,131.476146 356.701471,132 L355,132 L355.508486,130.583654 L356.016971,129.18671 L356.545014,128.041992 C356.916599,127.304716 357.268628,126.548038 357.640213,125.849566 L359.908841,121.522921 C361.434298,118.670827 363.037983,115.857537 364.622111,113.044247 L374.302893,96.2227146 L384.198804,79.5175938 C387.582188,73.9880242 390.84823,68.4584546 394.6032,63.006493 L395.033457,62.3662271 L395.854857,62.3662271 L434.851786,62.1528051 C447.857281,62.1528051 460.84322,61.9393831 473.848715,62.0169911 L476,62.0169911 L474.9048,63.821377 L454.428479,97.0764025 L433.913043,130.0598 Z M433.913043,130.0598 L453.352837,96.0869006 L472.812187,62.5796491 L473.868272,64.4034369 C460.862777,64.7138689 447.876839,64.7720749 434.871343,64.9660949 L395.893971,65.4511448 L397.126071,64.8108789 C393.527558,69.9718105 390.144173,75.5595861 386.760789,81.0309497 L376.767092,97.6196585 L366.988524,114.344181 L362.23614,122.648237 L359.889284,126.85847 C359.498141,127.576344 359.146113,128.274816 358.794084,128.973288 L358.324713,130.0598 L357.953128,130.913488 L356.779699,129.516544 C382.223533,129.497142 407.862938,129.632956 433.913043,130.0598 Z" id="Shape" fill="#DDE1E6" fill-rule="nonzero"></path>
                <path d="M513,60.0647948 C501.419728,60.2397408 489.839456,60.336933 478.259185,60.5701944 L496.728737,28.8660907 L513,0.466522678 L513,0 L495.64922,27.7775378 L475.099144,61.2116631 L474,63 L476.159034,63 C488.445898,63 500.713135,63 513,62.8639309 L513,60.0647948 Z" id="Path" fill="#DDE1E6" fill-rule="nonzero"></path>
                <path d="M77.8363568,336.748589 L96.0281855,304.312359 L104.987466,288.055305 L109.457347,279.897573 C110.869918,277.125815 112.447272,274.440726 114.180976,271.856659 L114.805588,271 L115.391162,271.856659 C116.308561,273.200056 117.343075,274.523984 118.162878,275.906321 L120.602769,280.111738 L125.482552,288.483634 L135.242117,305.246896 L144.826009,322.088036 L149.647234,330.518341 L152.048087,334.723758 C153.155422,336.25731 153.829538,338.059349 154,339.941591 C153.992114,340.982942 153.745053,342.008637 153.277792,342.939898 C152.809333,343.835497 152.457989,344.400113 152.048087,345.139955 L149.627715,349.345372 L144.826009,357.756208 L135.066444,374.558409 L125.30688,391.32167 L120.388059,399.674097 C118.811628,402.529833 117.071542,405.292594 115.176451,407.948646 L114.376167,409 L113.771074,407.890237 L94.447136,372.475169 L84.6875712,354.835779 L79.7882698,346.016084 C79.0075046,344.5364 78.0901055,343.115124 77.406936,341.577032 C76.7394814,339.99595 76.9002918,338.187785 77.8363568,336.748589 Z M77.8363568,336.748589 C76.9132014,338.187295 76.766906,339.989452 77.4459742,341.557562 C78.1291437,343.076185 79.066062,344.49746 79.8663463,345.957675 L84.8632434,354.718962 L94.8765568,372.241535 L105.046023,389.764108 L115.235009,407.150395 L113.829632,407.150395 C115.608985,404.478011 117.23809,401.70907 118.709414,398.856377 L123.354967,390.211907 L132.724149,373.234481 L142.210446,356.295993 L146.953594,347.846219 L149.315409,343.601862 L150.447518,341.65491 C150.724123,341.152604 150.877941,340.592262 150.896458,340.01947 C150.724806,338.668863 150.214604,337.383207 149.413005,336.281321 L147.05119,332.036964 L142.366599,323.431433 L132.938859,306.473476 L123.667273,289.437641 L119.041239,280.909989 L116.718463,276.704571 C115.937698,275.302765 115.000779,274.017777 114.141938,272.674379 L115.352124,272.674379 C113.562034,275.172665 111.919635,277.773022 110.433303,280.46219 L105.78775,288.503104 L96.4185681,304.526524 L77.8363568,336.748589 Z" id="Shape" fill="#DDE1E6" fill-rule="nonzero"></path>
                <path d="M0,469.941618 L16.3079815,442.910896 L26.1668091,426.778089 L31.1741583,418.740876 L33.6486071,414.693079 C34.4474449,413.311379 35.2462827,412.182666 36.5517006,411.929679 C38.063878,411.849366 39.5792599,411.849366 41.0914374,411.929679 L45.8260126,411.929679 L55.2951632,411.929679 L74.2139805,412.065903 L93.1327978,412.065903 L107.31704,412.065903 C108.096394,412.065903 108.973167,412.065903 109.791489,412.065903 L109.791489,412.260508 L108.719877,414.38171 L106.479234,418.643573 L101.822594,427.128379 L92.2365408,443.981227 L82.4946163,460.736772 C80.6631345,463.831001 78.8316527,466.925231 76.9612032,470 L79.2797812,470 C81.0138438,467.314442 82.7089386,464.609424 84.4235173,461.904406 C87.8526748,456.416527 91.2623483,450.909187 94.5356349,445.343466 L104.277559,428.56846 L109.051102,420.103115 L111.389164,415.821791 C111.778841,415.10175 112.129551,414.362249 112.499744,413.603287 L113.025808,412.474574 C113.220646,411.9686 113.396001,411.443164 113.571355,410.917729 L114,409.477648 L112.246454,409.185739 C110.610348,408.998092 108.961031,408.952513 107.31704,409.049515 L102.601948,409.049515 L93.1327978,409.166279 L74.2139805,409.438726 L55.2756794,409.866859 L45.8260126,410.080925 L41.0914374,410.197688 C39.4574349,410.171371 37.8235287,410.255894 36.2009913,410.450676 C34.4957729,411.021222 33.1323823,412.318817 32.4795761,413.992498 L30.1220304,418.098677 L25.3290036,426.311035 L15.8988207,442.696829 L0,469.941618 Z" id="Path" fill="#DDE1E6" fill-rule="nonzero"></path>
                <path d="M81.1163388,470 L96.4342743,443.141925 L105.547476,427.48124 L114.175934,412.701468 C114.933716,413.674439 115.620623,414.701602 116.231252,415.774878 L118.538637,420.06199 L123.153407,428.655791 L132.382948,445.706362 L141.767608,462.776509 L145.645566,470 L149,470 L149,469.843393 L144.210721,461.367047 L134.515825,444.433931 L124.82093,427.559543 L119.954092,419.141925 L117.510978,414.91354 C116.630769,413.517038 115.665903,412.176799 114.621899,410.900489 L113.982036,410 L113.458512,410.959217 L96.0076989,442.926591 L81,470 L81.1163388,470 Z" id="Path" fill="#DDE1E6" fill-rule="nonzero"></path>
            </g>
        </g>
    </g>
</svg>